<?xml version="1.0" encoding="utf-8"?>
<!-- Generator: Avocode 2.4.3-3630f5a - http://avocode.com -->
<svg height="90" width="144" xmlns:xlink="http://www.w3.org/1999/xlink" xmlns="http://www.w3.org/2000/svg" viewBox="0 0 144 90">
    <path fill="#c20e1a" fill-rule="evenodd" d="M 121.03 0.18 C 113.43 0.18 107.26 6.35 107.26 13.96 L 107.26 36.71 L 130.01 36.71 C 137.61 36.71 143.78 30.54 143.78 22.93 L 143.78 0.18 L 121.03 0.18 L 121.03 0.18 Z M 137.16 22.8 C 135.89 24.05 133.52 25.52 130.79 25.52 C 128.9 25.52 126.83 24.81 124.86 22.83 C 120.14 18.11 115.35 22.68 115.15 22.88 C 114.79 23.23 114.21 23.23 113.85 22.87 C 113.5 22.5 113.5 21.92 113.86 21.57 C 116.01 19.45 121.34 16.71 126.16 21.53 C 130.88 26.25 135.67 21.69 135.87 21.49 C 136.23 21.13 136.82 21.14 137.17 21.5 C 137.53 21.87 137.52 22.45 137.16 22.8 L 137.16 22.8 Z M 137.18 16.33 C 135.91 17.58 133.53 19.05 130.81 19.05 C 128.91 19.05 126.85 18.34 124.88 16.37 C 120.16 11.64 115.37 16.21 115.17 16.41 C 114.8 16.76 114.22 16.76 113.87 16.39 C 113.51 16.03 113.52 15.45 113.88 15.09 C 116.03 12.98 121.36 10.24 126.18 15.06 C 130.92 19.81 135.69 15.22 135.89 15.02 C 136.25 14.66 136.83 14.67 137.19 15.03 C 137.54 15.39 137.54 15.98 137.18 16.33 L 137.18 16.33 Z M 137.18 16.33" />
    <path fill="#c20e1a" fill-rule="evenodd" d="M 75.21 13.01 C 67.61 13.01 61.44 19.18 61.44 26.79 L 61.44 49.54 L 84.19 49.54 C 91.79 49.54 97.96 43.37 97.96 35.76 L 97.96 13.01 L 75.21 13.01 L 75.21 13.01 Z M 74.75 42.63 C 74.57 42.81 74.34 42.89 74.1 42.89 C 73.86 42.89 73.63 42.8 73.45 42.62 C 71.37 40.51 68.69 35.27 73.45 30.51 C 75.2 28.76 75.88 27.67 75.33 25.86 C 75.18 25.37 75.45 24.85 75.93 24.7 C 76.42 24.55 76.94 24.83 77.08 25.31 C 77.99 28.25 76.5 30.06 74.75 31.81 C 70.08 36.48 74.56 41.13 74.76 41.33 C 75.11 41.69 75.11 42.27 74.75 42.63 L 74.75 42.63 Z M 80.67 42.63 C 80.49 42.81 80.26 42.89 80.02 42.89 C 79.78 42.89 79.55 42.8 79.37 42.62 C 77.29 40.51 74.61 35.27 79.37 30.51 C 84.04 25.84 79.56 21.19 79.37 20.99 C 79.01 20.63 79.01 20.05 79.37 19.69 C 79.74 19.33 80.32 19.34 80.68 19.7 C 82.76 21.81 85.43 27.05 80.67 31.81 C 76 36.48 80.48 41.13 80.68 41.33 C 81.03 41.69 81.03 42.27 80.67 42.63 L 80.67 42.63 Z M 87.13 42.63 C 86.95 42.81 86.72 42.89 86.49 42.89 C 86.25 42.89 86.01 42.8 85.83 42.62 C 84 40.77 81.45 36.08 84.87 31.61 C 85.16 31.23 85.48 30.86 85.83 30.51 C 86.19 30.15 86.78 30.15 87.14 30.51 C 87.5 30.87 87.5 31.45 87.14 31.81 C 86.84 32.11 86.57 32.41 86.33 32.72 C 83.02 37.06 86.97 41.15 87.14 41.33 C 87.5 41.69 87.49 42.27 87.13 42.63 L 87.13 42.63 Z M 87.13 42.63" />
    <path fill="#c20e1a" fill-rule="evenodd" d="M 115.93 56.39 C 116.43 59.51 114.92 62.17 113.78 64.2 C 113.36 64.93 112.93 65.69 112.58 66.47 C 111.7 68.42 111.63 70.32 112.37 71.95 C 112.91 73.15 113.91 74.16 115.23 74.88 C 115.15 74.6 115.07 74.32 115.01 74.04 C 114.49 71.85 114.61 69.99 115.39 68.36 C 115.84 67.41 116.47 66.07 117.87 66.07 C 118.01 66.07 118.15 66.08 118.29 66.11 C 119.4 66.34 120.44 67.49 120.82 68.46 C 121.29 69.69 121.51 71.12 121.44 72.48 C 121.4 73.26 121.24 74 121.05 74.72 C 122.78 73.49 124.26 71.04 124.35 68.92 C 124.57 64.09 122.51 60.35 118.06 57.49 C 117.41 57.07 116.69 56.74 115.93 56.39 Z M 115.93 56.39" />
    <path fill="#c20e1a" fill-rule="evenodd" d="M 113.57 46.37 C 105.96 46.37 99.79 52.54 99.79 60.15 L 99.79 82.9 L 122.54 82.9 C 130.15 82.9 136.31 76.73 136.31 69.12 L 136.31 46.37 L 113.57 46.37 L 113.57 46.37 Z M 126.19 69 C 126.04 72.59 122.96 76.6 119.86 77.26 C 119.56 77.32 119.24 77.23 119.02 77 C 118.8 76.78 118.7 76.46 118.77 76.15 C 118.87 75.75 118.98 75.35 119.09 74.94 C 119.33 74.05 119.56 73.21 119.6 72.39 C 119.66 71.29 119.48 70.1 119.1 69.12 C 118.89 68.58 118.26 67.98 117.92 67.91 L 117.91 67.91 C 117.63 67.91 117.23 68.76 117.08 69.08 C 116.46 70.41 116.37 71.83 116.8 73.61 C 116.93 74.17 117.1 74.73 117.29 75.32 C 117.38 75.61 117.46 75.9 117.55 76.21 C 117.65 76.53 117.56 76.88 117.32 77.12 C 117.14 77.3 116.91 77.39 116.67 77.39 C 116.58 77.39 116.49 77.37 116.4 77.35 C 113.71 76.53 111.68 74.88 110.69 72.71 C 109.74 70.61 109.82 68.13 110.9 65.71 C 111.29 64.86 111.74 64.06 112.18 63.29 C 113.72 60.55 114.82 58.24 113.79 55.47 C 113.66 55.13 113.75 54.74 114.02 54.48 L 114.28 54.24 C 114.56 53.97 114.97 53.91 115.32 54.08 C 115.7 54.26 116.08 54.44 116.46 54.61 C 117.33 55 118.23 55.41 119.06 55.94 C 124.03 59.14 126.43 63.53 126.19 69 L 126.19 69 Z M 126.19 69" />
    <path fill="#777776" fill-rule="evenodd" d="M 83.11 70.46 C 82.87 70.7 82.57 70.82 82.23 70.82 L 74.18 70.82 L 74.18 77.68 L 80.89 77.68 C 81.22 77.68 81.51 77.8 81.75 78.04 C 81.99 78.28 82.11 78.57 82.11 78.9 C 82.11 79.23 81.99 79.51 81.75 79.75 C 81.51 79.99 81.22 80.11 80.89 80.11 L 74.18 80.11 L 74.18 88.39 C 74.18 88.76 74.05 89.07 73.8 89.32 C 73.55 89.57 73.24 89.7 72.87 89.7 C 72.51 89.7 72.2 89.57 71.95 89.32 C 71.7 89.07 71.57 88.76 71.57 88.39 L 71.57 69.57 C 71.57 69.24 71.69 68.95 71.93 68.7 C 72.17 68.45 72.47 68.33 72.82 68.33 L 82.23 68.33 C 82.57 68.33 82.87 68.45 83.11 68.7 C 83.35 68.95 83.47 69.24 83.47 69.57 C 83.47 69.92 83.35 70.21 83.11 70.46 M 65.37 89.07 C 65.12 89.32 64.83 89.44 64.51 89.44 L 54.43 89.44 C 54.08 89.44 53.79 89.32 53.55 89.07 C 53.31 88.83 53.19 88.54 53.19 88.19 L 53.19 69.57 C 53.19 69.24 53.31 68.95 53.55 68.7 C 53.79 68.45 54.08 68.33 54.43 68.33 L 64.07 68.33 C 64.42 68.33 64.71 68.45 64.96 68.7 C 65.2 68.95 65.32 69.24 65.32 69.57 C 65.32 69.92 65.2 70.21 64.96 70.46 C 64.71 70.7 64.42 70.82 64.07 70.82 L 55.79 70.82 L 55.79 77.68 L 63.35 77.68 C 63.68 77.68 63.96 77.8 64.19 78.04 C 64.42 78.28 64.54 78.57 64.54 78.9 C 64.54 79.23 64.42 79.51 64.19 79.75 C 63.96 79.99 63.68 80.11 63.35 80.11 L 55.79 80.11 L 55.79 86.95 L 64.51 86.95 C 64.85 86.95 65.15 87.07 65.39 87.31 C 65.63 87.55 65.75 87.84 65.75 88.19 C 65.75 88.54 65.63 88.83 65.37 89.07 M 45.37 89.7 C 44.79 89.7 44.37 89.49 44.12 89.06 L 34.51 73.45 L 34.51 88.48 C 34.51 88.81 34.39 89.09 34.15 89.34 C 33.91 89.58 33.62 89.7 33.3 89.7 C 32.97 89.7 32.69 89.58 32.46 89.34 C 32.22 89.09 32.11 88.81 32.11 88.48 L 32.11 69.28 C 32.11 68.47 32.53 68.07 33.38 68.07 C 33.94 68.07 34.37 68.31 34.66 68.79 L 44.24 84.34 L 44.24 69.28 C 44.24 68.95 44.36 68.67 44.6 68.43 C 44.84 68.19 45.13 68.07 45.46 68.07 C 45.78 68.07 46.06 68.19 46.29 68.43 C 46.53 68.67 46.64 68.95 46.64 69.28 L 46.64 88.48 C 46.64 89.29 46.22 89.7 45.37 89.7 M 22.9 89.32 C 22.65 89.57 22.34 89.7 21.98 89.7 C 21.61 89.7 21.3 89.57 21.05 89.32 C 20.8 89.07 20.67 88.76 20.67 88.39 L 20.67 69.37 C 20.67 69.02 20.8 68.72 21.05 68.46 C 21.3 68.2 21.61 68.07 21.98 68.07 C 22.34 68.07 22.65 68.2 22.9 68.46 C 23.15 68.72 23.28 69.02 23.28 69.37 L 23.28 88.39 C 23.28 88.76 23.15 89.07 22.9 89.32 M 13.52 85.95 C 13.17 86.75 12.67 87.43 12.02 87.99 C 11.36 88.55 10.57 88.97 9.64 89.26 C 8.71 89.55 7.67 89.7 6.51 89.7 C 4.37 89.7 2.52 89.39 0.96 88.77 C 0.4 88.54 0.12 88.14 0.12 87.58 C 0.12 87.26 0.23 86.97 0.45 86.71 C 0.67 86.46 0.95 86.34 1.27 86.34 C 1.43 86.34 1.73 86.43 2.17 86.6 C 2.44 86.7 2.71 86.79 2.97 86.87 C 3.23 86.96 3.48 87.02 3.73 87.06 C 4.56 87.24 5.42 87.32 6.31 87.32 C 8.01 87.32 9.3 86.97 10.19 86.25 C 11.02 85.6 11.44 84.66 11.44 83.44 C 11.44 82.57 11.21 81.91 10.77 81.45 C 10.33 80.98 9.61 80.61 8.63 80.32 C 8.42 80.24 7.44 80.03 5.7 79.68 C 4.35 79.41 3.38 79.12 2.78 78.81 C 1.04 77.98 0.17 76.48 0.17 74.32 C 0.17 72.41 0.81 70.89 2.08 69.75 C 3.34 68.63 4.97 68.07 6.98 68.07 C 8.87 68.07 10.47 68.34 11.78 68.88 C 12.36 69.11 12.65 69.5 12.65 70.04 C 12.65 70.36 12.54 70.65 12.32 70.91 C 12.1 71.16 11.8 71.28 11.44 71.28 C 11.24 71.28 10.63 71.15 9.58 70.88 C 8.54 70.61 7.72 70.47 7.12 70.47 C 5.77 70.47 4.71 70.79 3.94 71.44 C 3.17 72.09 2.78 72.96 2.78 74.06 C 2.78 74.91 3.03 75.59 3.53 76.09 C 3.98 76.51 4.68 76.85 5.65 77.1 C 6.21 77.22 6.76 77.33 7.3 77.45 C 7.84 77.56 8.38 77.68 8.92 77.8 C 10.35 78.12 11.36 78.49 11.96 78.9 C 13.35 79.82 14.04 81.26 14.04 83.21 C 14.04 84.23 13.87 85.15 13.52 85.95" />
</svg>