<?xml version="1.0" encoding="utf-8"?>
<!-- Generator: Adobe Adobe Illustrator 24.2.0, SVG Export Plug-In . SVG Version: 6.00 Build 0)  -->
<svg version="1.1" xmlns="http://www.w3.org/2000/svg" xmlns:xlink="http://www.w3.org/1999/xlink" x="0px" y="0px" width="1426px"
	 height="1286px" viewBox="0 0 1426 1286" style="enable-background:new 0 0 1426 1286;" xml:space="preserve">
<style type="text/css">
	.st0{display:none;}
	.st1{display:inline;fill:#FFFFFF;stroke:#000000;stroke-miterlimit:10;}
	.st2{fill:#00AFEF;stroke:#00AFEF;stroke-miterlimit:10;}
	.st3{fill:#FFFFFF;stroke:#FFFFFF;stroke-linecap:round;stroke-miterlimit:10;}
	.st4{fill:#FFFFFF;stroke:#FFFFFF;stroke-miterlimit:10;}
	.st5{fill:none;}
	.st6{fill:#FFFFFF;}
</style>
<g id="Layer_4" class="st0">
	<polyline class="st1" points="-284.32,-339.41 -283.83,1659.74 1716,1660 1716,-340 	"/>
</g>

<g id="V3_white">
	<path class="st2" d="M1205.65,737.93c25.26,48.53,5,92.49-6.09,160.03c-4.27,25.99,31.36,38.63,68,8.17
		c25.02-20.8,34.52-21.46,29.21-129.63C1455.4,1027.56,1014.72,1085.17,1205.65,737.93z"/>
	<path class="st2" d="M614.62,655.16c-84.71,29.39-156.23,64.19-197.03,111.56c10.91,27.18,8.94,38.97,14.63,68.11
		c78.58-40.27,168.65-46.58,258.58-50.19c-31.14-19.73-96.78-36.95-167.01-54.41l317.92,52.83l6.18,33.06
		c-2.19-8.48-464.26,84.29-466.61,96.93c-0.99,5.35-37.43-158.47-37.43-158.47C399.17,687.71,508.74,673.21,614.62,655.16z"/>
	<path class="st2" d="M577.5,360.4c-146.15-34.62-274.84-50.34-356.4,1.39c24.23,38.9,37.44,84.59,35.21,138.96
		c81.43-8.14,146.19-22.98,399.01,37.7c-43.92-42.76-127.81-83.89-213.92-124.93c112.67,32.47,229.5,68.85,491.1,241.7L907.37,681
		l-210.75-66.91l-396.42-46.96l-115.94-54.84l-48.98-209.31l213.29-28.55L577.5,360.4z"/>
	<path class="st2" d="M836.6,129.84L635.88,92.47c6.54,28.8,0.77,66.12-8.73,106.03c97.58,71.04,178.92,141.98,265.71,193.45
		c-22.11-48.6-104.86-154.88-181.56-256.69l320.25,374.31l-23.3,48.58L596.28,239.63l-14.56-126.77l15.41-71.27l129.81,34.04
		L836.6,129.84z"/>
</g>
<g id="V3_White">
	<path class="st3" d="M1004.92,504.35c-95.69-50.49-251.01-181.22-409.29-314.97c13.97-42.4,18.2-83.75,8.86-123.65
		c89.61,5.97,164.74,39.87,240.55,69.21c-87.9-77.49-218.43-123.58-295.08-116.7c0,0,2.21,105.98-35.46,168.12
		c116.65,182.71,529.22,446.48,597.97,463.32c-132.53-323.4-402.86-516.93-408.54-520.66
		C737.76,162.83,947.76,423.38,1004.92,504.35z"/>
	<path class="st4" d="M588.44,368.31C438.56,244.22,237.56,221.43,94.97,304.33c45.17,93.47,73.15,199.53,84.21,318
		c321.12-56.37,728.63,61.21,946.19,153.63C900.14,585.08,533.95,363.18,410.39,409.99c95.47,13.89,356.9,163.71,439.57,234.57
		c-231.72-96.64-426.44-135.63-619-121.71c-38.83-81.14-69.86-156.59-65-205.83C255.67,280.77,436.13,312.04,588.44,368.31z"/>
	<path class="st4" d="M616.91,655.41c-96.72-21.03-214.74,17.62-345.46,91.91c40.71,71.2,74.09,138.76,89.8,197.56
		c110.36-45.45,203.06-92.08,648.14-115.15c-200.71-127.62-379.41-128.57-486.5-99.25c120.27,29.71,246.73,39.04,312.84,74.77
		c-140.14,0-279.37-6.97-433.81,81.54c-2.66-48.6-11.75-90.88-34.33-119.91C416.14,718.31,510.97,682.41,616.91,655.41z"/>
	<path class="st4" d="M1083.97,515.72c0,144.4-105.22,278.6-231.27,353.28C983.93,835.94,1167.26,682.52,1083.97,515.72z"/>
	<g id="Layer_1">
		<path class="st3" d="M1069.97,764.07c-38.71,28.6-73,46.79-56.83,144.36c12.58,75.9,98.26,105.33,164.76,109.82
			c58.01,3.92,119.37-25.7,137.72-58.27c38.07-67.57,23.03-158.18-21.23-188.94v0c0,0,23.79,34.56,12.16,103.74
			c-1.95,11.63-12.61,73.98-98.19,80.76c-32.33,2.56-64.48-37.37-27.22-110.34c12.94-25.34,42.27-58.11,23.41-111.39
			c-23.76,54.43-80.98,93.35-124.35,103.69C1072.38,839.38,1048.69,842.08,1069.97,764.07z"/>
	</g>
</g>
<g id="V3_White_1_">
	<g>
		<rect x="-13.55" y="1152.44" class="st5" width="1459.1" height="150"/>
		<path class="st6" d="M46.7,1259.69v22.35H15.8v-104.7c0-3,1.35-4.5,4.35-4.5h89.7c20.4,0,28.8,9.45,28.8,26.1v9.6
			c0,8.7-4.35,13.95-8.85,17.1c6.3,3.15,11.1,9.45,11.1,18.6v9.6c0,18.3-7.8,28.2-28.95,28.2H56.3l-8.55-22.35H46.7z M49.25,1197.14
			c-1.8,0-2.55,0.9-2.55,2.55v18.45h51.9c6.75,0,9.3-2.4,9.3-8.7v-3.3c0-6.6-2.55-9-9.3-9H49.25z M46.7,1235.84v20.55h53.7
			c5.4,0,7.8-2.25,7.8-8.7v-3.15c0-6.45-2.1-8.7-7.8-8.7H46.7z"/>
		<path class="st6" d="M257,1216.34h-1.2v-14.7c0-1.05-0.45-1.5-1.35-1.5h-52.2c-12,0-16.35,4.2-16.35,17.55v18.3
			c0,13.05,4.2,17.7,16.35,17.7H284v28.35h-84.45c-32.55,0-44.55-16.95-44.55-43.35v-22.5c0-26.4,12-43.35,44.55-43.35h81.75
			c3,0,4.35,1.5,4.35,4.5v28.35L257,1216.34z"/>
		<path class="st6" d="M401.3,1227.29h-1.05v54.75h-30.9v-104.7c0-3,1.35-4.5,4.35-4.5h116.4c3,0,4.35,1.5,4.35,4.5v29.4l-28.5,9.6
			h-1.35v-14.55c0-1.2-0.45-1.65-1.35-1.65H403.1c-2.1,0-2.85,0.75-2.85,2.7v21.6h50.1v24.45H409.4L401.3,1227.29z"/>
		<path class="st6" d="M539.75,1229.39v52.65h-30.9v-104.7c0-3,1.35-4.5,4.2-4.5h85.35c27.15,0,36.9,13.35,36.9,34.95v7.8
			c0,21.15-9.75,34.2-35.7,34.2h-3.15c-3,0-5.25,0-7.35-0.15v1.05c2.55,2.4,5.25,5.4,7.65,8.4l17.4,21.75v1.2h-34.8l-38.55-52.65
			H539.75z M541.85,1200.14c-1.2,0-2.1,0.75-2.1,2.55v23.85h53.1c8.1,0,11.4-2.7,11.4-11.55v-3.75c0-8.4-3.3-11.1-11.4-11.1H541.85z
			"/>
		<path class="st6" d="M650,1282.04v-109.2h30.9v109.2H650z"/>
		<path class="st6" d="M730.25,1259.69v22.35h-30.9v-104.7c0-3,1.35-4.5,4.35-4.5h89.7c20.4,0,28.8,9.45,28.8,26.1v9.6
			c0,8.7-4.35,13.95-8.85,17.1c6.3,3.15,11.1,9.45,11.1,18.6v9.6c0,18.3-7.8,28.2-28.95,28.2h-55.65l-8.55-22.35H730.25z
			 M732.8,1197.14c-1.8,0-2.55,0.9-2.55,2.55v18.45h51.9c6.75,0,9.3-2.4,9.3-8.7v-3.3c0-6.6-2.55-9-9.3-9H732.8z M730.25,1235.84
			v20.55h53.7c5.4,0,7.8-2.25,7.8-8.7v-3.15c0-6.45-2.1-8.7-7.8-8.7H730.25z"/>
		<path class="st6" d="M976.09,1238.69c0,26.4-12,43.35-44.4,43.35h-48.6c-32.55,0-44.55-16.95-44.55-43.35v-22.5
			c0-26.4,12-43.35,44.55-43.35h48.6c32.4,0,44.4,16.95,44.4,43.35V1238.69z M890.45,1253.69h38.4c13.35,0,16.35-5.1,16.35-21.6
			v-14.4c0-13.35-4.65-17.55-16.35-17.55H885.8c-13.35,0-16.35,5.1-16.35,21.45v14.4C869.45,1250.99,875,1253.69,890.45,1253.69z"/>
		<path class="st6" d="M992.75,1172.84h30.9v64.05c0,12.3,4.8,16.8,16.2,16.8h41.25c11.55,0,16.35-4.5,16.35-17.1v-63.75h30.9v65.85
			c0,27.15-11.85,43.35-44.55,43.35h-46.65c-32.4,0-44.4-16.2-44.4-43.35V1172.84z"/>
		<path class="st6" d="M1176.95,1229.39v52.65h-30.9v-104.7c0-3,1.35-4.5,4.2-4.5h85.35c27.15,0,36.9,13.35,36.9,34.95v7.8
			c0,21.15-9.75,34.2-35.7,34.2h-3.15c-3,0-5.25,0-7.35-0.15v1.05c2.55,2.4,5.25,5.4,7.65,8.4l17.4,21.75v1.2h-34.8l-38.55-52.65
			H1176.95z M1179.05,1200.14c-1.2,0-2.1,0.75-2.1,2.55v23.85h53.1c8.1,0,11.4-2.7,11.4-11.55v-3.75c0-8.4-3.3-11.1-11.4-11.1
			H1179.05z"/>
		<path class="st6" d="M1386.49,1235.24c0-3.15-0.3-7.05-0.75-9.6v-1.35h30.6v53.55c0,2.7-1.05,4.2-3.75,4.2h-82.2
			c-32.55,0-44.55-16.95-44.55-43.35v-22.5c0-26.4,12-43.35,44.55-43.35h81.75c3,0,4.35,1.5,4.35,4.5v23.55l-28.65,10.5h-1.2v-10.5
			c0-1.05-0.45-1.5-1.35-1.5h-52.2c-11.85,0-16.35,4.05-16.35,17.4v19.2c0,13.2,4.5,17.7,16.35,17.7h51.75
			c1.05,0,1.65-0.75,1.65-1.8V1235.24z"/>
	</g>
</g>
</svg>
