<?xml version="1.0" encoding="utf-8"?>
<!-- Generator: Adobe Adobe Illustrator 24.2.0, SVG Export Plug-In . SVG Version: 6.00 Build 0)  -->
<svg version="1.1" id="V3_White_1_" xmlns="http://www.w3.org/2000/svg" xmlns:xlink="http://www.w3.org/1999/xlink" x="0px"
	 y="0px" width="1426px" height="1286px" viewBox="0 0 1426 1286" style="enable-background:new 0 0 1426 1286;"
	 xml:space="preserve">
<style type="text/css">
	.st0{fill:none;}
	.st1{fill:#FFFFFF;stroke:#FFFFFF;stroke-miterlimit:10;}
	.st2{fill:#00AFEF;stroke:#00AFEF;stroke-miterlimit:10;}
	.st3{fill:#FFFFFF;stroke:#FFFFFF;stroke-linecap:round;stroke-miterlimit:10;}
</style>
<g>
	<rect x="-13.55" y="1152.44" class="st0" width="1459.1" height="150"/>
	<path class="st1" d="M46.7,1259.69v22.35H15.8v-104.7c0-3,1.35-4.5,4.35-4.5h89.7c20.4,0,28.8,9.45,28.8,26.1v9.6
		c0,8.7-4.35,13.95-8.85,17.1c6.3,3.15,11.1,9.45,11.1,18.6v9.6c0,18.3-7.8,28.2-28.95,28.2H56.3l-8.55-22.35H46.7z M49.25,1197.14
		c-1.8,0-2.55,0.9-2.55,2.55v18.45h51.9c6.75,0,9.3-2.4,9.3-8.7v-3.3c0-6.6-2.55-9-9.3-9H49.25z M46.7,1235.84v20.55h53.7
		c5.4,0,7.8-2.25,7.8-8.7v-3.15c0-6.45-2.1-8.7-7.8-8.7H46.7z"/>
	<path class="st1" d="M257,1216.34h-1.2v-14.7c0-1.05-0.45-1.5-1.35-1.5h-52.2c-12,0-16.35,4.2-16.35,17.55v18.3
		c0,13.05,4.2,17.7,16.35,17.7H284v28.35h-84.45c-32.55,0-44.55-16.95-44.55-43.35v-22.5c0-26.4,12-43.35,44.55-43.35h81.75
		c3,0,4.35,1.5,4.35,4.5v28.35L257,1216.34z"/>
	<path class="st1" d="M401.3,1227.29h-1.05v54.75h-30.9v-104.7c0-3,1.35-4.5,4.35-4.5h116.4c3,0,4.35,1.5,4.35,4.5v29.4l-28.5,9.6
		h-1.35v-14.55c0-1.2-0.45-1.65-1.35-1.65H403.1c-2.1,0-2.85,0.75-2.85,2.7v21.6h50.1v24.45H409.4L401.3,1227.29z"/>
	<path class="st1" d="M539.75,1229.39v52.65h-30.9v-104.7c0-3,1.35-4.5,4.2-4.5h85.35c27.15,0,36.9,13.35,36.9,34.95v7.8
		c0,21.15-9.75,34.2-35.7,34.2h-3.15c-3,0-5.25,0-7.35-0.15v1.05c2.55,2.4,5.25,5.4,7.65,8.4l17.4,21.75v1.2h-34.8l-38.55-52.65
		H539.75z M541.85,1200.14c-1.2,0-2.1,0.75-2.1,2.55v23.85h53.1c8.1,0,11.4-2.7,11.4-11.55v-3.75c0-8.4-3.3-11.1-11.4-11.1H541.85z"
		/>
	<path class="st1" d="M650,1282.04v-109.2h30.9v109.2H650z"/>
	<path class="st1" d="M730.25,1259.69v22.35h-30.9v-104.7c0-3,1.35-4.5,4.35-4.5h89.7c20.4,0,28.8,9.45,28.8,26.1v9.6
		c0,8.7-4.35,13.95-8.85,17.1c6.3,3.15,11.1,9.45,11.1,18.6v9.6c0,18.3-7.8,28.2-28.95,28.2h-55.65l-8.55-22.35H730.25z
		 M732.8,1197.14c-1.8,0-2.55,0.9-2.55,2.55v18.45h51.9c6.75,0,9.3-2.4,9.3-8.7v-3.3c0-6.6-2.55-9-9.3-9H732.8z M730.25,1235.84
		v20.55h53.7c5.4,0,7.8-2.25,7.8-8.7v-3.15c0-6.45-2.1-8.7-7.8-8.7H730.25z"/>
	<path class="st1" d="M976.09,1238.69c0,26.4-12,43.35-44.4,43.35h-48.6c-32.55,0-44.55-16.95-44.55-43.35v-22.5
		c0-26.4,12-43.35,44.55-43.35h48.6c32.4,0,44.4,16.95,44.4,43.35V1238.69z M890.45,1253.69h38.4c13.35,0,16.35-5.1,16.35-21.6
		v-14.4c0-13.35-4.65-17.55-16.35-17.55H885.8c-13.35,0-16.35,5.1-16.35,21.45v14.4C869.45,1250.99,875,1253.69,890.45,1253.69z"/>
	<path class="st1" d="M992.75,1172.84h30.9v64.05c0,12.3,4.8,16.8,16.2,16.8h41.25c11.55,0,16.35-4.5,16.35-17.1v-63.75h30.9v65.85
		c0,27.15-11.85,43.35-44.55,43.35h-46.65c-32.4,0-44.4-16.2-44.4-43.35V1172.84z"/>
	<path class="st1" d="M1176.95,1229.39v52.65h-30.9v-104.7c0-3,1.35-4.5,4.2-4.5h85.35c27.15,0,36.9,13.35,36.9,34.95v7.8
		c0,21.15-9.75,34.2-35.7,34.2h-3.15c-3,0-5.25,0-7.35-0.15v1.05c2.55,2.4,5.25,5.4,7.65,8.4l17.4,21.75v1.2h-34.8l-38.55-52.65
		H1176.95z M1179.05,1200.14c-1.2,0-2.1,0.75-2.1,2.55v23.85h53.1c8.1,0,11.4-2.7,11.4-11.55v-3.75c0-8.4-3.3-11.1-11.4-11.1
		H1179.05z"/>
	<path class="st1" d="M1386.49,1235.24c0-3.15-0.3-7.05-0.75-9.6v-1.35h30.6v53.55c0,2.7-1.05,4.2-3.75,4.2h-82.2
		c-32.55,0-44.55-16.95-44.55-43.35v-22.5c0-26.4,12-43.35,44.55-43.35h81.75c3,0,4.35,1.5,4.35,4.5v23.55l-28.65,10.5h-1.2v-10.5
		c0-1.05-0.45-1.5-1.35-1.5h-52.2c-11.85,0-16.35,4.05-16.35,17.4v19.2c0,13.2,4.5,17.7,16.35,17.7h51.75c1.05,0,1.65-0.75,1.65-1.8
		V1235.24z"/>
</g>
<path class="st2" d="M1104.51,764.06c29.01,39.48,49.36,53.34,60.82,91.14c3.54,11.66,4.03,45.37,13.51,52.62
	c45.59,34.89,71.04-7.77,73.03-59.04c1.56-40.13-25.4-91.78-46.7-112.06c16.58,6.37,29.15,14.1,40.15,22.56
	c24.4,18.76,38.07,41.08,40.97,69.55c12.01,117.74-115.49,238.07-163.34-19.09C1118.04,794.02,1107.56,777.53,1104.51,764.06z"/>
<path class="st2" d="M606.58,696.38c-84.71,29.39-149.67,59.78-190.47,107.16c10.91,27.18,8.94,38.97,14.63,68.11
	c78.58-40.27,168.65-46.58,258.58-50.19c-31.14-19.73-87.78-30.95-158.01-48.41l308.92,46.83l6.18,28.06
	c-2.19-8.48-464.26,89.29-466.61,101.93c-0.99,5.35-37.43-158.47-37.43-158.47C397.68,724.53,500.69,714.44,606.58,696.38z"/>
<path class="st2" d="M585.89,386.64c-144.86-39.7-276.45-65.3-359.76-16.45c22.86,39.72,34.47,85.84,30.34,140.11
	c81.66-5.3,146.9-17.87,397.45,51.61c-42.4-44.27-124.8-88.3-209.43-132.32c111.47,36.38,226.95,76.82,482.36,258.69l-26.02,24.89
	l-208.29-74.22l-394.54-60.77l-113.96-58.85l-41.64-210.89l214.15-21.09L585.89,386.64z"/>
<path class="st2" d="M885.63,176.73l-196.15-72.45c1.95,29.47-9.58,65.43-25.21,103.36c85.26,85.43,154.5,168.22,232.18,232.64
	c-14.24-51.47-79.35-169.38-139.17-281.93l257.76,419.8l-30.61,44.34L627.35,243.43l5.45-127.48l26.37-67.98l122.89,53.93
	L885.63,176.73z"/>
<path class="st1" d="M1103.77,762.74c0,0,35.43,55.43,42.41,76.04c2.81,8.31,3.79,26.06,5.16,34.72
	c44.18,175.8,216.54-35.75,50.62-138.76c107.97,9.76,167.43,182.77,80.39,261.64c-135.75,114.99-324.91,21.99-273.88-148.65
	C1073.95,1000.32,1124.21,835.42,1103.77,762.74z"/>
<path class="st3" d="M989.55,568.86c-86.61-64.84-219.57-218.25-354.98-375.12c20.43-39.69,31.08-79.87,28.1-120.74
	c87.57,19.92,156.47,65.15,226.76,105.99C814.74,88.7,693.02,22.76,616.23,17.56c0,0-14.4,105.02-61.32,160.5
	c106.6,187.36,442.83,478.71,518.47,535.77c-80.31-340.15-317.38-558.2-322.4-562.77C779.1,189.76,945.75,479.95,989.55,568.86z"/>
<path class="st1" d="M592.76,389.83C447.3,260.6,247.21,230.8,101.82,308.67c41.88,94.99,66.14,201.96,73.06,320.75
	c322.9-45.13,658.41,43.39,872.62,143.35C829.07,574.14,538.48,382.81,413.36,425.28c94.93,17.21,350.97,176.07,431.12,249.77
	C616.27,570.38,423.03,524.62,230.11,531.81c-35.97-82.44-64.35-158.93-57.78-207.98C263.24,290.73,442.5,328.29,592.76,389.83z"/>
<path class="st1" d="M615.78,693.51c-97.65-16.18-213.59,28.32-340.44,109.04c44.21,69.08,80.92,134.89,99.55,192.83
	c107.96-50.9,178.5-110.32,619.32-169.12c-212.63-112.3-363.09-87.71-468.59-53.09c121.6,23.67,248.38,26.67,316.19,59.06
	c-139.97,7-279.37,6.98-429.2,103.09c-5.08-48.41-16.27-90.18-40.28-118.04C418.4,766.35,511.33,725.77,615.78,693.51z"/>
<path class="st1" d="M1080.49,558.11c0,144.4-105.22,278.6-231.27,353.28C980.44,878.33,1163.77,724.91,1080.49,558.11z"/>
</svg>
