<?xml version="1.0" encoding="utf-8"?>
<!-- Generator: Adobe Adobe Illustrator 24.2.0, SVG Export Plug-In . SVG Version: 6.00 Build 0)  -->
<svg version="1.1" xmlns="http://www.w3.org/2000/svg" xmlns:xlink="http://www.w3.org/1999/xlink" x="0px" y="0px" width="3730px"
	 height="884px" viewBox="0 0 3730 884" style="enable-background:new 0 0 3730 884;" xml:space="preserve">
<style type="text/css">
	.st0{display:none;fill:#FFFFFF;stroke:#000000;stroke-miterlimit:10;}
	.st1{fill:#00AFEF;stroke:#00AFEF;stroke-miterlimit:10;}
	.st2{stroke:#000000;stroke-miterlimit:10;}
	.st3{stroke:#000000;stroke-linecap:round;stroke-miterlimit:10;}
</style>
<g id="Layer_4">
	<polyline class="st0" points="-176.49,-445.41 -175.01,1553.74 5824,1554 5824,-446 	"/>
	<g>
		<path d="M1035.19,330.61v42.08h-58.17V175.58c0-5.65,2.54-8.47,8.19-8.47h168.87c38.41,0,54.22,17.79,54.22,49.14v18.07
			c0,16.38-8.19,26.26-16.66,32.19c11.86,5.93,20.9,17.79,20.9,35.02v18.07c0,34.45-14.68,53.09-54.5,53.09h-104.77l-16.1-42.08
			H1035.19z M1039.99,212.86c-3.39,0-4.8,1.69-4.8,4.8v34.73h97.71c12.71,0,17.51-4.52,17.51-16.38v-6.21
			c0-12.43-4.8-16.94-17.51-16.94H1039.99z M1035.19,285.71v38.69h101.1c10.17,0,14.68-4.24,14.68-16.38v-5.93
			c0-12.14-3.95-16.38-14.68-16.38H1035.19z"/>
		<path d="M1232.57,256.06v-38.41h144.02c20.33,0,29.65,11.86,29.65,33.04v115.22c0,4.52-2.26,6.78-6.5,6.78h-135.27
			c-22.31,0-35.86-10.73-35.86-43.49v-11.58c0-29.37,13.56-40.95,35.86-40.95h78.79l9.6,22.87h1.98v-31.35
			c0-8.75-3.67-12.14-10.73-12.14H1232.57z M1354.85,330.9v-23.72h-67.21c-6.78,0-9.32,3.39-9.32,10.17v6.78
			c0,6.5,2.54,10.17,9.32,10.17h64.1C1354,334.29,1354.85,333.16,1354.85,330.9z"/>
		<path d="M1491.52,372.69c-46.03,0-62.97-24-62.97-61.56v-31.91c0-37.28,16.94-61.56,62.97-61.56h75.68v-65.23h51.11v220.27
			H1491.52z M1549.69,327.23l15.25,39.82h2.26V258.32h-66.08c-17.23,0-21.46,7.06-21.46,29.65v16.38c0,17.51,5.65,22.87,21.46,22.87
			H1549.69z"/>
		<path d="M1802.43,217.66h79.92c46.31,0,63.26,24,63.26,61.56v93.47h-51.11v-90.37c0-17.79-6.5-24-21.46-24h-48.01
			c1.98,6.21,2.82,13.27,2.82,20.9v93.47h-51.11v-90.37c0-17.79-6.5-24-21.46-24h-49.14l-8.47-22.59h-1.98v136.96h-51.11V217.66
			h120.02c22.03,0,36.15,6.21,46.6,16.38l1.13-0.85c-3.39-3.95-7.06-8.47-9.88-13.27V217.66z"/>
		<path d="M1970.45,193.37v-40.95h51.11v40.95H1970.45z M1970.45,372.69V217.66h51.11v155.03H1970.45z"/>
		<path d="M2047.82,217.66h126.51c46.31,0,63.26,24,63.26,61.56v93.47h-51.11v-90.08c0-17.79-6.5-24.29-21.74-24.29h-55.35
			l-8.47-22.59h-1.98v136.96h-51.11V217.66z"/>
		<path d="M2372.85,256.63h-45.18v116.06h-51.11V256.63h-20.33l-14.12-36.71v-2.26h34.45v-50.55h51.11v50.55h45.18V256.63z"/>
		<path d="M2585.49,311.13c0,37.56-17.23,61.56-63.54,61.56h-74.55c-46.03,0-63.26-24-63.26-61.56v-31.91
			c0-37.28,17.23-61.56,63.26-61.56h74.55c46.31,0,63.54,24.29,63.54,61.56V311.13z M2512.63,327.23c16.1,0,21.74-5.37,21.74-22.87
			v-21.74c0-18.64-6.21-24.29-21.74-24.29H2457c-16.1,0-21.46,5.93-21.46,24.29v21.74c0,17.51,5.37,22.87,21.46,22.87H2512.63z"/>
		<path d="M2609.2,217.66h126.51c46.31,0,63.26,24,63.26,61.56v93.47h-51.11v-90.08c0-17.79-6.5-24.29-21.74-24.29h-55.35
			l-8.47-22.59h-1.98v136.96h-51.11V217.66z"/>
		<path d="M3131.34,249h-2.26v-27.67c0-1.98-0.85-2.82-2.54-2.82h-98.27c-22.59,0-30.78,7.91-30.78,33.04V286
			c0,24.57,7.91,33.32,30.78,33.32h153.9v53.37h-158.99c-61.28,0-83.87-31.91-83.87-81.61v-42.36c0-49.7,22.59-81.61,83.87-81.61
			h153.9c5.65,0,8.19,2.82,8.19,8.47v53.37L3131.34,249z"/>
		<path d="M3208.14,372.69V152.42h51.11v220.27H3208.14z"/>
		<path d="M3285.51,217.66h51.11v86.69c0,17.23,6.5,22.87,23.72,22.87h46.6c18.07,0,24.29-6.5,24.29-22.87v-86.69h51.11v93.47
			c0,37.56-16.94,61.56-63.54,61.56h-70.32c-46.03,0-62.97-24-62.97-61.56V217.66z"/>
		<path d="M3508.6,152.42h51.11v65.23h75.4c46.31,0,63.26,24.29,63.26,61.56v31.91c0,37.56-16.94,61.56-63.26,61.56h-57.61
			l-15.53-39.54h-1.98v39.54h-51.4V152.42z M3559.71,258.32v68.9h65.8c16.1,0,21.74-5.37,21.74-22.87v-21.74
			c0-18.36-5.65-24.29-21.74-24.29H3559.71z"/>
	</g>
	<g>
		<path d="M1301.88,615.72h-1.98v103.07h-58.17V521.68c0-5.65,2.54-8.47,8.19-8.47h219.14c5.65,0,8.19,2.82,8.19,8.47v55.35
			l-53.65,18.07h-2.54v-27.39c0-2.26-0.85-3.11-2.54-3.11h-113.24c-3.95,0-5.37,1.41-5.37,5.08v40.67h94.32v46.03h-77.09
			L1301.88,615.72z"/>
		<path d="M1615.33,628.71h-2.26v-21.18c0-1.69-0.85-3.11-2.82-3.11h-62.41c-9.04,0-12.42,3.67-12.42,13.84v100.53h-51.11V607.25
			c0-26.26,13.27-43.49,43.21-43.49h125.67c5.08,0,7.34,2.54,7.34,7.62v40.1L1615.33,628.71z"/>
		<path d="M1679.71,539.47v-40.95h51.11v40.95H1679.71z M1679.71,718.79V563.76h51.11v155.04H1679.71z"/>
		<path d="M1757.08,498.53h51.11v65.23h75.4c46.31,0,63.26,24.29,63.26,61.56v31.91c0,37.56-16.94,61.56-63.26,61.56h-57.61
			l-15.53-39.54h-1.98v39.54h-51.4V498.53z M1808.2,604.42v68.9h65.8c16.1,0,21.74-5.37,21.74-22.87v-21.74
			c0-18.36-5.65-24.29-21.74-24.29H1808.2z"/>
		<path d="M2169.37,657.23c0,37.56-17.23,61.56-63.54,61.56h-74.55c-46.03,0-63.26-24-63.26-61.56v-31.91
			c0-37.28,17.23-61.56,63.26-61.56h74.55c46.31,0,63.54,24.29,63.54,61.56V657.23z M2096.52,673.33c16.1,0,21.74-5.37,21.74-22.87
			v-21.74c0-18.64-6.21-24.29-21.74-24.29h-55.63c-16.1,0-21.46,5.93-21.46,24.29v21.74c0,17.51,5.37,22.87,21.46,22.87H2096.52z"/>
		<path d="M2193.09,563.76h51.11v86.7c0,17.23,6.5,22.87,23.72,22.87h46.6c18.07,0,24.29-6.5,24.29-22.87v-86.7h51.11v93.47
			c0,37.56-16.94,61.56-63.54,61.56h-70.32c-46.03,0-62.97-24-62.97-61.56V563.76z"/>
		<path d="M2546.36,628.71h-2.26v-21.18c0-1.69-0.85-3.11-2.82-3.11h-62.41c-9.04,0-12.42,3.67-12.42,13.84v100.53h-51.11V607.25
			c0-26.26,13.27-43.49,43.21-43.49h125.67c5.08,0,7.34,2.54,7.34,7.62v40.1L2546.36,628.71z"/>
		<path d="M2613,739.13h112.11c14.68,0,19.77-6.5,19.77-20.61v-12.43h-75.4c-46.31,0-63.54-18.64-63.54-56.48v-24.29
			c0-37.56,17.23-61.56,63.54-61.56h112.67c9.32,0,14.12,4.8,14.12,14.12V721.9c0,36.15-15.81,60.43-63.26,60.43H2613V739.13z
			 M2742.9,700.44h1.98v-91.21c0-3.11-1.69-4.8-4.8-4.8h-61c-15.81,0-22.03,6.21-22.03,24v14.4c0,16.66,5.93,22.03,22.03,22.03
			h49.98L2742.9,700.44z"/>
	</g>
</g>
<g id="V3_White">
	<path class="st1" d="M898.41,637.19c25.08,32.33,42.66,43.67,52.57,74.63c3.06,9.55,3.49,37.15,11.67,43.09
		c39.4,28.57,61.41-6.36,63.13-48.35c1.35-32.86-21.96-75.15-40.36-91.76c14.33,5.22,25.2,11.55,34.71,18.47
		c21.09,15.36,32.91,33.64,35.41,56.95c10.38,96.41-99.82,194.94-141.18-15.63C910.11,661.72,901.04,648.22,898.41,637.19z"/>
	<path class="st1" d="M468.01,581.77c-73.22,24.07-129.37,48.95-164.64,87.75c9.43,22.26,7.73,31.91,12.65,55.77
		c67.93-32.97,145.77-38.14,223.51-41.1c-26.91-16.16-75.88-25.34-136.58-39.64l267.02,38.35l5.34,22.97
		c-1.89-6.94-401.3,73.12-403.33,83.47c-0.86,4.38-32.36-129.76-32.36-129.76C287.45,604.82,376.49,596.56,468.01,581.77z"/>
	<path class="st1" d="M450.13,328.14c-125.21-32.51-238.96-53.47-310.97-13.47c19.76,32.52,29.79,70.29,26.22,114.73
		c70.59-4.34,126.98-14.63,343.55,42.26c-36.65-36.25-107.87-72.31-181.03-108.35c96.35,29.79,196.17,62.9,416.94,211.83
		l-22.49,20.38l-180.04-60.78l-341.03-49.76l-98.5-48.19l-36-172.69l185.11-17.27L450.13,328.14z"/>
	<path class="st1" d="M709.21,156.25L539.67,96.92c1.69,24.13-8.28,53.58-21.79,84.64c73.7,69.95,133.55,137.75,200.69,190.49
		c-12.31-42.14-68.58-138.69-120.29-230.86l222.8,343.76l-26.46,36.3L485.96,210.87l4.71-104.39l22.79-55.67l106.22,44.16
		L709.21,156.25z"/>
	<path class="st2" d="M897.77,636.11c0,0,30.62,45.39,36.66,62.27c2.43,6.81,3.27,21.34,4.46,28.43
		c38.18,143.96,187.17-29.27,43.75-113.62c93.33,7.99,144.72,149.66,69.49,214.25c-117.34,94.16-280.84,18.01-236.74-121.72
		C872,830.65,915.44,695.63,897.77,636.11z"/>
	<path class="st3" d="M799.04,477.35c-74.87-53.1-189.79-178.72-306.83-307.17c17.66-32.5,26.86-65.4,24.29-98.87
		c75.7,16.31,135.25,53.35,196,86.79C647.94,84.17,542.73,30.18,476.36,25.92c0,0-12.44,86-53,131.43
		c92.14,153.42,382.77,391.99,448.15,438.71c-69.42-278.53-274.34-457.09-278.68-460.82C617.13,166.92,761.19,404.54,799.04,477.35z
		"/>
	<path class="st2" d="M456.06,330.76C330.34,224.93,157.38,200.53,31.71,264.3c36.2,77.78,57.17,165.38,63.15,262.65
		c279.1-36.96,569.12,35.53,754.27,117.38C660.33,481.68,409.15,325,301,359.78c82.05,14.1,303.37,144.18,372.65,204.53
		C476.39,478.6,309.36,441.12,142.6,447.01c-31.09-67.51-55.63-130.14-49.94-170.3C171.24,249.61,326.18,280.36,456.06,330.76z"/>
	<path class="st2" d="M475.96,579.42c-84.41-13.25-184.62,23.19-294.27,89.29c38.22,56.56,69.95,110.45,86.05,157.9
		c93.31-41.68,154.29-90.33,535.33-138.48c-183.79-91.96-313.85-71.82-405.04-43.47c105.11,19.38,214.69,21.84,273.3,48.36
		c-120.99,5.73-241.48,5.72-370.99,84.41c-4.39-39.64-14.07-73.85-34.81-96.66C305.36,639.07,385.68,605.83,475.96,579.42z"/>
	<path class="st2" d="M877.65,468.55c0,118.25-90.95,228.14-199.9,289.28C791.17,730.76,949.64,605.13,877.65,468.55z"/>
</g>
</svg>
