<?xml version="1.0" encoding="utf-8"?>
<!-- Generator: Adobe Adobe Illustrator 24.2.0, SVG Export Plug-In . SVG Version: 6.00 Build 0)  -->
<svg version="1.1" xmlns="http://www.w3.org/2000/svg" xmlns:xlink="http://www.w3.org/1999/xlink" x="0px" y="0px" width="2730px"
	 height="884px" viewBox="0 0 2730 884" style="enable-background:new 0 0 2730 884;" xml:space="preserve">
<style type="text/css">
	.st0{display:none;fill:#FFFFFF;stroke:#000000;stroke-miterlimit:10;}
	.st1{display:none;}
	.st2{fill:#00AFEF;stroke:#00AFEF;stroke-miterlimit:10;}
	.st3{stroke:#000000;stroke-linecap:round;stroke-miterlimit:10;}
	.st4{stroke:#000000;stroke-miterlimit:10;}
</style>
<g id="Layer_4">
	<polyline class="st0" points="-1176.49,-445.41 -1175.01,1553.74 4824,1554 4824,-446 	"/>
	<g>
		<path d="M1222.34,555.96h-1.98v103.07h-58.17V461.92c0-5.65,2.54-8.47,8.19-8.47h219.14c5.65,0,8.19,2.82,8.19,8.47v55.35
			l-53.65,18.07h-2.54v-27.39c0-2.26-0.85-3.11-2.54-3.11h-113.24c-3.95,0-5.37,1.41-5.37,5.08v40.67h94.32v46.03h-77.09
			L1222.34,555.96z"/>
		<path d="M1535.79,568.95h-2.26v-21.18c0-1.69-0.85-3.11-2.82-3.11h-62.41c-9.04,0-12.42,3.67-12.42,13.84v100.53h-51.11V547.49
			c0-26.26,13.27-43.49,43.21-43.49h125.67c5.08,0,7.34,2.54,7.34,7.62v40.1L1535.79,568.95z"/>
		<path d="M1600.17,479.71v-40.95h51.11v40.95H1600.17z M1600.17,659.04V504h51.11v155.03H1600.17z"/>
		<path d="M1677.54,438.77h51.11V504h75.4c46.31,0,63.26,24.29,63.26,61.56v31.91c0,37.56-16.94,61.56-63.26,61.56h-57.61
			l-15.53-39.54h-1.98v39.54h-51.4V438.77z M1728.66,544.67v68.9h65.8c16.1,0,21.74-5.37,21.74-22.87v-21.74
			c0-18.36-5.65-24.29-21.74-24.29H1728.66z"/>
		<path d="M2089.83,597.47c0,37.56-17.23,61.56-63.54,61.56h-74.55c-46.03,0-63.26-24-63.26-61.56v-31.91
			c0-37.28,17.23-61.56,63.26-61.56h74.55c46.31,0,63.54,24.29,63.54,61.56V597.47z M2016.98,613.57c16.1,0,21.74-5.37,21.74-22.87
			v-21.74c0-18.64-6.21-24.29-21.74-24.29h-55.63c-16.1,0-21.46,5.93-21.46,24.29v21.74c0,17.51,5.37,22.87,21.46,22.87H2016.98z"/>
		<path d="M2113.55,504h51.11v86.69c0,17.23,6.5,22.87,23.72,22.87h46.6c18.07,0,24.29-6.5,24.29-22.87V504h51.11v93.47
			c0,37.56-16.94,61.56-63.54,61.56h-70.32c-46.03,0-62.97-24-62.97-61.56V504z"/>
		<path d="M2466.82,568.95h-2.26v-21.18c0-1.69-0.85-3.11-2.82-3.11h-62.41c-9.04,0-12.42,3.67-12.42,13.84v100.53h-51.11V547.49
			c0-26.26,13.27-43.49,43.21-43.49h125.67c5.08,0,7.34,2.54,7.34,7.62v40.1L2466.82,568.95z"/>
		<path d="M2533.46,679.37h112.11c14.68,0,19.77-6.5,19.77-20.61v-12.43h-75.4c-46.31,0-63.54-18.64-63.54-56.48v-24.29
			c0-37.56,17.23-61.56,63.54-61.56h112.67c9.32,0,14.12,4.8,14.12,14.12v144.02c0,36.15-15.81,60.43-63.26,60.43h-120.02V679.37z
			 M2663.36,640.68h1.98v-91.21c0-3.11-1.69-4.8-4.8-4.8h-61c-15.81,0-22.03,6.21-22.03,24v14.4c0,16.66,5.93,22.03,22.03,22.03
			h49.98L2663.36,640.68z"/>
	</g>
	<g>
		<path d="M1195.81,280.57v23.84h-32.96V192.73c0-3.2,1.44-4.8,4.64-4.8h95.68c21.76,0,30.72,10.08,30.72,27.84v10.24
			c0,9.28-4.64,14.88-9.44,18.24c6.72,3.36,11.84,10.08,11.84,19.84v10.24c0,19.52-8.32,30.08-30.88,30.08h-59.36l-9.12-23.84
			H1195.81z M1198.53,213.85c-1.92,0-2.72,0.96-2.72,2.72v19.68h55.36c7.2,0,9.92-2.56,9.92-9.28v-3.52c0-7.04-2.72-9.6-9.92-9.6
			H1198.53z M1195.81,255.13v21.92h57.28c5.76,0,8.32-2.4,8.32-9.28v-3.36c0-6.88-2.24-9.28-8.32-9.28H1195.81z"/>
		<path d="M1307.65,238.33v-21.76h81.6c11.52,0,16.8,6.72,16.8,18.72v65.28c0,2.56-1.28,3.84-3.68,3.84h-76.64
			c-12.64,0-20.32-6.08-20.32-24.64v-6.56c0-16.64,7.68-23.2,20.32-23.2h44.64l5.44,12.96h1.12v-17.76c0-4.96-2.08-6.88-6.08-6.88
			H1307.65z M1376.93,280.73v-13.44h-38.08c-3.84,0-5.28,1.92-5.28,5.76v3.84c0,3.68,1.44,5.76,5.28,5.76h36.32
			C1376.45,282.65,1376.93,282.01,1376.93,280.73z"/>
		<path d="M1454.37,304.41c-26.08,0-35.68-13.6-35.68-34.88v-18.08c0-21.12,9.6-34.88,35.68-34.88h42.88v-36.96h28.96v124.8H1454.37
			z M1487.33,278.65l8.64,22.56h1.28v-61.6h-37.44c-9.76,0-12.16,4-12.16,16.8v9.28c0,9.92,3.2,12.96,12.16,12.96H1487.33z"/>
		<path d="M1630.53,216.57h45.28c26.24,0,35.84,13.6,35.84,34.88v52.96h-28.96v-51.2c0-10.08-3.68-13.6-12.16-13.6h-27.2
			c1.12,3.52,1.6,7.52,1.6,11.84v52.96h-28.96v-51.2c0-10.08-3.68-13.6-12.16-13.6h-27.84l-4.8-12.8h-1.12v77.6h-28.96v-87.84h68
			c12.48,0,20.48,3.52,26.4,9.28l0.64-0.48c-1.92-2.24-4-4.8-5.6-7.52V216.57z"/>
		<path d="M1725.73,202.81v-23.2h28.96v23.2H1725.73z M1725.73,304.41v-87.84h28.96v87.84H1725.73z"/>
		<path d="M1769.57,216.57h71.68c26.24,0,35.84,13.6,35.84,34.88v52.96h-28.96v-51.04c0-10.08-3.68-13.76-12.32-13.76h-31.36
			l-4.8-12.8h-1.12v77.6h-28.96V216.57z"/>
		<path d="M1953.73,238.65h-25.6v65.76h-28.96v-65.76h-11.52l-8-20.8v-1.28h19.52v-28.64h28.96v28.64h25.6V238.65z"/>
		<path d="M2074.21,269.53c0,21.28-9.76,34.88-36,34.88h-42.24c-26.08,0-35.84-13.6-35.84-34.88v-18.08
			c0-21.12,9.76-34.88,35.84-34.88h42.24c26.24,0,36,13.76,36,34.88V269.53z M2032.93,278.65c9.12,0,12.32-3.04,12.32-12.96v-12.32
			c0-10.56-3.52-13.76-12.32-13.76h-31.52c-9.12,0-12.16,3.36-12.16,13.76v12.32c0,9.92,3.04,12.96,12.16,12.96H2032.93z"/>
		<path d="M2087.65,216.57h71.68c26.24,0,35.84,13.6,35.84,34.88v52.96h-28.96v-51.04c0-10.08-3.68-13.76-12.32-13.76h-31.36
			l-4.8-12.8h-1.12v77.6h-28.96V216.57z"/>
		<path d="M2383.48,234.33h-1.28v-15.68c0-1.12-0.48-1.6-1.44-1.6h-55.68c-12.8,0-17.44,4.48-17.44,18.72v19.52
			c0,13.92,4.48,18.88,17.44,18.88h87.2v30.24h-90.08c-34.72,0-47.52-18.08-47.52-46.24v-24c0-28.16,12.8-46.24,47.52-46.24h87.2
			c3.2,0,4.64,1.6,4.64,4.8v30.24L2383.48,234.33z"/>
		<path d="M2427,304.41v-124.8h28.96v124.8H2427z"/>
		<path d="M2470.84,216.57h28.96v49.12c0,9.76,3.68,12.96,13.44,12.96h26.4c10.24,0,13.76-3.68,13.76-12.96v-49.12h28.96v52.96
			c0,21.28-9.6,34.88-36,34.88h-39.84c-26.08,0-35.68-13.6-35.68-34.88V216.57z"/>
		<path d="M2597.24,179.61h28.96v36.96h42.72c26.24,0,35.84,13.76,35.84,34.88v18.08c0,21.28-9.6,34.88-35.84,34.88h-32.64
			l-8.8-22.4h-1.12v22.4h-29.12V179.61z M2626.2,239.61v39.04h37.28c9.12,0,12.32-3.04,12.32-12.96v-12.32
			c0-10.4-3.2-13.76-12.32-13.76H2626.2z"/>
	</g>
</g>
<g id="V3_white">
	<path class="st2" d="M982.09,632.13c21.85,41.97,4.33,79.98-5.27,138.4c-3.69,22.48,27.12,33.4,58.81,7.06
		c21.64-17.99,29.85-18.56,25.26-112.11C1198.08,882.6,816.97,932.42,982.09,632.13z"/>
	<path class="st2" d="M470.96,560.54c-73.26,25.42-135.11,55.51-170.39,96.48c9.43,23.51,7.73,33.7,12.65,58.9
		c67.96-34.82,145.85-40.28,223.62-43.41c-26.93-17.06-83.7-31.95-144.43-47.06l274.94,45.69l5.34,28.59
		c-1.89-7.33-401.5,72.9-403.53,83.83c-0.86,4.62-32.37-137.05-32.37-137.05C284.64,588.69,379.39,576.16,470.96,560.54z"/>
	<path class="st2" d="M438.86,305.63c-126.39-29.94-237.68-43.53-308.22,1.2c20.96,33.64,32.38,73.15,30.45,120.18
		c70.42-7.04,126.43-19.88,345.07,32.61c-37.99-36.98-110.53-72.55-185-108.04c97.44,28.08,198.47,59.54,424.71,209.03l-21.73,22.29
		l-182.26-57.86l-342.83-40.61L98.77,436.99L56.41,255.97l184.45-24.69L438.86,305.63z"/>
	<path class="st2" d="M662.93,106.24L489.35,73.93c5.65,24.91,0.66,57.18-7.55,91.7c84.38,61.44,154.73,122.79,229.79,167.3
		c-19.12-42.03-90.69-133.94-157.01-221.99l276.96,323.71l-20.15,42.01L455.1,201.19L442.51,91.56l13.33-61.63L568.1,59.37
		L662.93,106.24z"/>
</g>
<g id="V3_White">
	<path class="st3" d="M808.5,430.12c-82.76-43.67-217.07-156.72-353.96-272.39c12.08-36.67,15.74-72.43,7.66-106.93
		c77.5,5.16,142.46,34.48,208.03,59.85C594.22,43.64,481.34,3.78,415.04,9.73c0,0,1.91,91.65-30.66,145.39
		C485.26,313.12,842.05,541.23,901.51,555.8C786.89,276.11,553.11,108.75,548.2,105.53C577.45,134.78,759.06,360.1,808.5,430.12z"/>
	<path class="st4" d="M448.32,312.47C318.7,205.16,144.87,185.45,21.56,257.14c39.06,80.83,63.26,172.56,72.82,275.01
		c277.71-48.75,630.13,52.93,818.27,132.86C717.88,499.94,401.2,308.04,294.34,348.52c82.56,12.01,308.65,141.58,380.15,202.86
		c-200.4-83.57-368.79-117.3-535.31-105.26C105.6,375.95,78.76,310.7,82.96,268.12C160.54,236.77,316.6,263.81,448.32,312.47z"/>
	<path class="st4" d="M472.94,560.76c-83.65-18.19-185.71,15.24-298.76,79.49c35.21,61.57,64.07,120,77.66,170.85
		c95.44-39.31,175.61-79.63,560.51-99.59c-173.58-110.37-328.11-111.19-420.73-85.84c104.01,25.69,213.38,33.76,270.55,64.66
		c-121.2,0-241.61-6.03-375.16,70.51c-2.3-42.03-10.16-78.6-29.69-103.7C299.31,615.16,381.33,584.11,472.94,560.76z"/>
	<path class="st4" d="M876.86,439.95c0,124.88-90.99,240.94-200,305.52C790.34,716.89,948.89,584.21,876.86,439.95z"/>
	<g id="Layer_1">
		<path class="st3" d="M864.75,654.73c-33.48,24.73-63.13,40.47-49.15,124.85c10.88,65.64,84.97,91.09,142.48,94.98
			c50.17,3.39,103.23-22.22,119.1-50.39c32.92-58.43,19.92-136.8-18.36-163.4v0c0,0,20.57,29.89,10.52,89.72
			c-1.69,10.06-10.91,63.98-84.92,69.85c-27.96,2.22-55.76-32.32-23.54-95.42c11.19-21.92,36.56-50.26,20.24-96.33
			c-20.55,47.08-70.03,80.73-107.54,89.67C866.83,719.86,846.34,722.19,864.75,654.73z"/>
	</g>
</g>
</svg>
