<?xml version="1.0" encoding="utf-8"?>
<!-- Generator: Adobe Adobe Illustrator 24.2.0, SVG Export Plug-In . SVG Version: 6.00 Build 0)  -->
<svg version="1.1" xmlns="http://www.w3.org/2000/svg" xmlns:xlink="http://www.w3.org/1999/xlink" x="0px" y="0px" width="5650px"
	 height="884px" viewBox="0 0 5650 884" style="enable-background:new 0 0 5650 884;" xml:space="preserve">
<style type="text/css">
	.st0{display:none;fill:#FFFFFF;stroke:#000000;stroke-miterlimit:10;}
	.st1{display:none;}
	.st2{fill:#00AFEF;stroke:#00AFEF;stroke-miterlimit:10;}
	.st3{stroke:#000000;stroke-linecap:round;stroke-miterlimit:10;}
	.st4{stroke:#000000;stroke-miterlimit:10;}
</style>
<g id="Layer_4">
	<polyline class="st0" points="-176.49,-445.41 -175.01,1553.74 5824,1554 5824,-446 	"/>
	<g>
		<path d="M58.54,609.36v42.08H0.37V454.32c0-5.65,2.54-8.47,8.19-8.47h168.87c38.41,0,54.22,17.79,54.22,49.14v18.07
			c0,16.38-8.19,26.26-16.66,32.19c11.86,5.93,20.9,17.79,20.9,35.02v18.07c0,34.45-14.68,53.09-54.5,53.09H76.62l-16.1-42.08H58.54
			z M63.34,491.6c-3.39,0-4.8,1.69-4.8,4.8v34.73h97.71c12.71,0,17.51-4.52,17.51-16.38v-6.21c0-12.43-4.8-16.94-17.51-16.94H63.34z
			 M58.54,564.46v38.69h101.1c10.17,0,14.68-4.24,14.68-16.38v-5.93c0-12.14-3.95-16.38-14.68-16.38H58.54z"/>
		<path d="M255.93,534.81V496.4h144.02c20.33,0,29.65,11.86,29.65,33.04v115.22c0,4.52-2.26,6.78-6.5,6.78H287.84
			c-22.31,0-35.86-10.73-35.86-43.49v-11.58c0-29.37,13.56-40.95,35.86-40.95h78.79l9.6,22.87h1.98v-31.35
			c0-8.75-3.67-12.14-10.73-12.14H255.93z M378.21,609.64v-23.72H311c-6.78,0-9.32,3.39-9.32,10.17v6.78
			c0,6.5,2.54,10.17,9.32,10.17h64.1C377.36,613.03,378.21,611.9,378.21,609.64z"/>
		<path d="M514.88,651.44c-46.03,0-62.97-24-62.97-61.56v-31.91c0-37.28,16.94-61.56,62.97-61.56h75.68v-65.23h51.11v220.27H514.88z
			 M573.05,605.97l15.25,39.82h2.26V537.07h-66.08c-17.23,0-21.46,7.06-21.46,29.65v16.38c0,17.51,5.65,22.87,21.46,22.87H573.05z"
			/>
		<path d="M825.79,496.4h79.92c46.31,0,63.26,24,63.26,61.56v93.47h-51.11v-90.37c0-17.79-6.5-24-21.46-24h-48.01
			c1.98,6.21,2.82,13.27,2.82,20.9v93.47h-51.11v-90.37c0-17.79-6.5-24-21.46-24h-49.14l-8.47-22.59h-1.98v136.96h-51.11V496.4
			h120.02c22.03,0,36.15,6.21,46.6,16.38l1.13-0.85c-3.39-3.95-7.06-8.47-9.88-13.27V496.4z"/>
		<path d="M993.81,472.12v-40.95h51.11v40.95H993.81z M993.81,651.44V496.4h51.11v155.03H993.81z"/>
		<path d="M1071.18,496.4h126.51c46.31,0,63.26,24,63.26,61.56v93.47h-51.11v-90.08c0-17.79-6.5-24.29-21.74-24.29h-55.35
			l-8.47-22.59h-1.98v136.96h-51.11V496.4z"/>
		<path d="M1396.2,535.37h-45.18v116.06h-51.11V535.37h-20.33l-14.12-36.71v-2.26h34.45v-50.55h51.11v50.55h45.18V535.37z"/>
		<path d="M1608.85,589.87c0,37.56-17.23,61.56-63.54,61.56h-74.55c-46.03,0-63.26-24-63.26-61.56v-31.91
			c0-37.28,17.23-61.56,63.26-61.56h74.55c46.31,0,63.54,24.29,63.54,61.56V589.87z M1535.99,605.97c16.1,0,21.74-5.37,21.74-22.87
			v-21.74c0-18.64-6.21-24.29-21.74-24.29h-55.63c-16.1,0-21.46,5.93-21.46,24.29v21.74c0,17.51,5.37,22.87,21.46,22.87H1535.99z"/>
		<path d="M1632.56,496.4h126.51c46.31,0,63.26,24,63.26,61.56v93.47h-51.11v-90.08c0-17.79-6.5-24.29-21.74-24.29h-55.35
			l-8.47-22.59h-1.98v136.96h-51.11V496.4z"/>
		<path d="M2154.7,527.75h-2.26v-27.67c0-1.98-0.85-2.82-2.54-2.82h-98.27c-22.59,0-30.78,7.91-30.78,33.04v34.45
			c0,24.57,7.91,33.32,30.78,33.32h153.9v53.37h-158.99c-61.28,0-83.87-31.91-83.87-81.61v-42.36c0-49.7,22.59-81.61,83.87-81.61
			h153.9c5.65,0,8.19,2.82,8.19,8.47v53.37L2154.7,527.75z"/>
		<path d="M2231.5,651.44V431.17h51.11v220.27H2231.5z"/>
		<path d="M2308.87,496.4h51.11v86.69c0,17.23,6.5,22.87,23.72,22.87h46.6c18.07,0,24.29-6.5,24.29-22.87V496.4h51.11v93.47
			c0,37.56-16.94,61.56-63.54,61.56h-70.32c-46.03,0-62.97-24-62.97-61.56V496.4z"/>
		<path d="M2531.95,431.17h51.11v65.23h75.4c46.31,0,63.26,24.29,63.26,61.56v31.91c0,37.56-16.94,61.56-63.26,61.56h-57.61
			l-15.53-39.54h-1.98v39.54h-51.4V431.17z M2583.07,537.07v68.9h65.8c16.1,0,21.74-5.37,21.74-22.87v-21.74
			c0-18.36-5.65-24.29-21.74-24.29H2583.07z"/>
	</g>
	<g>
		<path d="M4152.47,548.36h-1.98v103.07h-58.17V454.32c0-5.65,2.54-8.47,8.19-8.47h219.14c5.65,0,8.19,2.82,8.19,8.47v55.35
			l-53.65,18.07h-2.54v-27.39c0-2.26-0.85-3.11-2.54-3.11h-113.24c-3.95,0-5.37,1.41-5.37,5.08V543h94.32v46.03h-77.09
			L4152.47,548.36z"/>
		<path d="M4465.92,561.35h-2.26v-21.18c0-1.69-0.85-3.11-2.82-3.11h-62.41c-9.04,0-12.42,3.67-12.42,13.84v100.53h-51.11V539.89
			c0-26.26,13.27-43.49,43.21-43.49h125.67c5.08,0,7.34,2.54,7.34,7.62v40.1L4465.92,561.35z"/>
		<path d="M4530.3,472.12v-40.95h51.11v40.95H4530.3z M4530.3,651.44V496.4h51.11v155.03H4530.3z"/>
		<path d="M4607.67,431.17h51.11v65.23h75.4c46.31,0,63.26,24.29,63.26,61.56v31.91c0,37.56-16.94,61.56-63.26,61.56h-57.61
			l-15.53-39.54h-1.98v39.54h-51.4V431.17z M4658.78,537.07v68.9h65.8c16.1,0,21.74-5.37,21.74-22.87v-21.74
			c0-18.36-5.65-24.29-21.74-24.29H4658.78z"/>
		<path d="M5019.96,589.87c0,37.56-17.23,61.56-63.54,61.56h-74.55c-46.03,0-63.26-24-63.26-61.56v-31.91
			c0-37.28,17.23-61.56,63.26-61.56h74.55c46.31,0,63.54,24.29,63.54,61.56V589.87z M4947.1,605.97c16.1,0,21.74-5.37,21.74-22.87
			v-21.74c0-18.64-6.21-24.29-21.74-24.29h-55.63c-16.1,0-21.46,5.93-21.46,24.29v21.74c0,17.51,5.37,22.87,21.46,22.87H4947.1z"/>
		<path d="M5043.68,496.4h51.11v86.69c0,17.23,6.5,22.87,23.72,22.87h46.6c18.07,0,24.29-6.5,24.29-22.87V496.4h51.11v93.47
			c0,37.56-16.94,61.56-63.54,61.56h-70.32c-46.03,0-62.97-24-62.97-61.56V496.4z"/>
		<path d="M5396.94,561.35h-2.26v-21.18c0-1.69-0.85-3.11-2.82-3.11h-62.41c-9.04,0-12.42,3.67-12.42,13.84v100.53h-51.11V539.89
			c0-26.26,13.27-43.49,43.21-43.49h125.67c5.08,0,7.34,2.54,7.34,7.62v40.1L5396.94,561.35z"/>
		<path d="M5463.59,671.77h112.11c14.68,0,19.77-6.5,19.77-20.61v-12.43h-75.4c-46.31,0-63.54-18.64-63.54-56.48v-24.29
			c0-37.56,17.23-61.56,63.54-61.56h112.67c9.32,0,14.12,4.8,14.12,14.12v144.02c0,36.15-15.81,60.43-63.26,60.43h-120.02V671.77z
			 M5593.49,633.08h1.98v-91.21c0-3.11-1.69-4.8-4.8-4.8h-61c-15.81,0-22.03,6.21-22.03,24v14.4c0,16.66,5.93,22.03,22.03,22.03
			h49.98L5593.49,633.08z"/>
	</g>
</g>
<g id="V3_white">
	<path class="st2" d="M3802.09,632.9c21.85,41.97,4.33,79.98-5.27,138.4c-3.69,22.48,27.12,33.4,58.81,7.06
		c21.64-17.99,29.85-18.56,25.26-112.11C4018.08,883.37,3636.97,933.19,3802.09,632.9z"/>
	<path class="st2" d="M3290.96,561.31c-73.26,25.42-135.11,55.51-170.39,96.48c9.43,23.51,7.73,33.7,12.65,58.9
		c67.96-34.82,145.85-40.28,223.62-43.41c-26.93-17.06-83.7-31.95-144.43-47.06l274.94,45.69l5.34,28.59
		c-1.89-7.33-401.5,72.9-403.53,83.83c-0.86,4.62-32.37-137.05-32.37-137.05C3104.64,589.46,3199.39,576.92,3290.96,561.31z"/>
	<path class="st2" d="M3258.86,306.4c-126.39-29.94-237.68-43.53-308.22,1.2c20.96,33.64,32.38,73.15,30.45,120.18
		c70.42-7.04,126.43-19.88,345.07,32.61c-37.99-36.98-110.53-72.55-185-108.04c97.44,28.08,198.47,59.54,424.71,209.03l-21.73,22.29
		l-182.26-57.86l-342.83-40.61l-100.27-47.43l-42.36-181.02l184.45-24.69L3258.86,306.4z"/>
	<path class="st2" d="M3482.93,107.01l-173.58-32.32c5.65,24.91,0.66,57.18-7.55,91.7c84.39,61.44,154.73,122.79,229.79,167.3
		c-19.12-42.03-90.69-133.94-157.01-221.99l276.96,323.71l-20.15,42.01L3275.1,201.96l-12.59-109.63l13.33-61.63l112.26,29.44
		L3482.93,107.01z"/>
</g>
<g id="V3_White">
	<path class="st3" d="M3628.5,430.89c-82.76-43.67-217.07-156.72-353.96-272.39c12.08-36.67,15.74-72.43,7.66-106.93
		c77.5,5.16,142.46,34.48,208.03,59.85c-76.01-67.02-188.9-106.87-255.19-100.93c0,0,1.91,91.65-30.66,145.39
		c100.88,158.01,457.67,386.12,517.13,400.68c-114.61-279.68-348.4-447.05-353.31-450.27
		C3397.45,135.55,3579.06,360.87,3628.5,430.89z"/>
	<path class="st4" d="M3268.32,313.24c-129.62-107.31-303.45-127.02-426.76-55.33c39.06,80.83,63.26,172.56,72.82,275.01
		c277.71-48.75,630.13,52.93,818.27,132.86c-194.77-165.08-511.46-356.98-618.31-316.5c82.56,12.01,308.65,141.58,380.15,202.86
		c-200.4-83.57-368.79-117.3-535.31-105.26c-33.58-70.17-60.42-135.42-56.21-178.01C2980.54,237.54,3136.6,264.58,3268.32,313.24z"
		/>
	<path class="st4" d="M3292.94,561.53c-83.65-18.19-185.71,15.24-298.76,79.49c35.21,61.57,64.07,120,77.66,170.85
		c95.44-39.31,175.61-79.63,560.51-99.59c-173.57-110.37-328.11-111.19-420.73-85.84c104.01,25.69,213.38,33.76,270.55,64.66
		c-121.2,0-241.61-6.03-375.16,70.51c-2.3-42.03-10.16-78.6-29.69-103.7C3119.31,615.93,3201.33,584.88,3292.94,561.53z"/>
	<path class="st4" d="M3696.86,440.72c0,124.88-90.99,240.94-200,305.52C3610.34,717.66,3768.89,584.98,3696.86,440.72z"/>
	<g id="Layer_1">
		<path class="st3" d="M3684.75,655.5c-33.48,24.73-63.13,40.47-49.15,124.85c10.88,65.64,84.97,91.09,142.48,94.98
			c50.17,3.39,103.23-22.22,119.1-50.39c32.92-58.43,19.92-136.8-18.36-163.4v0c0,0,20.57,29.89,10.52,89.72
			c-1.69,10.06-10.91,63.98-84.92,69.85c-27.96,2.22-55.76-32.32-23.54-95.42c11.19-21.92,36.56-50.26,20.24-96.33
			c-20.55,47.08-70.03,80.73-107.54,89.67C3686.83,720.63,3666.34,722.96,3684.75,655.5z"/>
	</g>
</g>
</svg>
