<?xml version="1.0" encoding="utf-8"?>
<!-- Generator: Adobe Adobe Illustrator 24.2.0, SVG Export Plug-In . SVG Version: 6.00 Build 0)  -->
<svg version="1.1" xmlns="http://www.w3.org/2000/svg" xmlns:xlink="http://www.w3.org/1999/xlink" x="0px" y="0px" width="6060px"
	 height="1220px" viewBox="0 0 6060 1220" style="enable-background:new 0 0 6060 1220;" xml:space="preserve">
<style type="text/css">
	.st0{display:none;fill:#FFFFFF;stroke:#000000;stroke-miterlimit:10;}
	.st1{fill:#00AFEF;stroke:#00AFEF;stroke-miterlimit:10;}
	.st2{stroke:#000000;stroke-miterlimit:10;}
	.st3{stroke:#000000;stroke-linecap:round;stroke-miterlimit:10;}
</style>
<g id="Layer_4">
	<polyline class="st0" points="33.51,-265.41 34.99,1733.74 6034,1734 6034,-266 	"/>
	<g>
		<path d="M268.54,789.36v42.08h-58.17V634.32c0-5.65,2.54-8.47,8.19-8.47h168.87c38.41,0,54.22,17.79,54.22,49.14v18.07
			c0,16.38-8.19,26.26-16.66,32.19c11.86,5.93,20.9,17.79,20.9,35.02v18.07c0,34.45-14.68,53.09-54.5,53.09H286.62l-16.1-42.08
			H268.54z M273.34,671.6c-3.39,0-4.8,1.69-4.8,4.8v34.73h97.71c12.71,0,17.51-4.52,17.51-16.38v-6.21
			c0-12.43-4.8-16.94-17.51-16.94H273.34z M268.54,744.46v38.69h101.1c10.17,0,14.68-4.24,14.68-16.38v-5.93
			c0-12.14-3.95-16.38-14.68-16.38H268.54z"/>
		<path d="M465.93,714.81V676.4h144.02c20.33,0,29.65,11.86,29.65,33.04v115.22c0,4.52-2.26,6.78-6.5,6.78H497.84
			c-22.31,0-35.86-10.73-35.86-43.49v-11.58c0-29.37,13.56-40.95,35.86-40.95h78.79l9.6,22.87h1.98v-31.35
			c0-8.75-3.67-12.14-10.73-12.14H465.93z M588.21,789.64v-23.72H521c-6.78,0-9.32,3.39-9.32,10.17v6.78
			c0,6.5,2.54,10.17,9.32,10.17h64.1C587.36,793.03,588.21,791.9,588.21,789.64z"/>
		<path d="M724.88,831.44c-46.03,0-62.97-24-62.97-61.56v-31.91c0-37.28,16.94-61.56,62.97-61.56h75.68v-65.23h51.11v220.27H724.88z
			 M783.05,785.97l15.25,39.82h2.26V717.07h-66.08c-17.23,0-21.46,7.06-21.46,29.65v16.38c0,17.51,5.65,22.87,21.46,22.87H783.05z"
			/>
		<path d="M1035.79,676.4h79.92c46.31,0,63.26,24,63.26,61.56v93.47h-51.11v-90.37c0-17.79-6.5-24-21.46-24h-48.01
			c1.98,6.21,2.82,13.27,2.82,20.9v93.47h-51.11v-90.37c0-17.79-6.5-24-21.46-24h-49.14l-8.47-22.59h-1.98v136.96h-51.11V676.4
			h120.02c22.03,0,36.15,6.21,46.6,16.38l1.13-0.85c-3.39-3.95-7.06-8.47-9.88-13.27V676.4z"/>
		<path d="M1203.81,652.12v-40.95h51.11v40.95H1203.81z M1203.81,831.44V676.4h51.11v155.03H1203.81z"/>
		<path d="M1281.18,676.4h126.51c46.31,0,63.26,24,63.26,61.56v93.47h-51.11v-90.08c0-17.79-6.5-24.29-21.74-24.29h-55.35
			l-8.47-22.59h-1.98v136.96h-51.11V676.4z"/>
		<path d="M1606.2,715.37h-45.18v116.06h-51.11V715.37h-20.33l-14.12-36.71v-2.26h34.45v-50.55h51.11v50.55h45.18V715.37z"/>
		<path d="M1818.85,769.87c0,37.56-17.23,61.56-63.54,61.56h-74.55c-46.03,0-63.26-24-63.26-61.56v-31.91
			c0-37.28,17.23-61.56,63.26-61.56h74.55c46.31,0,63.54,24.29,63.54,61.56V769.87z M1745.99,785.97c16.1,0,21.74-5.37,21.74-22.87
			v-21.74c0-18.64-6.21-24.29-21.74-24.29h-55.63c-16.1,0-21.46,5.93-21.46,24.29v21.74c0,17.51,5.37,22.87,21.46,22.87H1745.99z"/>
		<path d="M1842.56,676.4h126.51c46.31,0,63.26,24,63.26,61.56v93.47h-51.11v-90.08c0-17.79-6.5-24.29-21.74-24.29h-55.35
			l-8.47-22.59h-1.98v136.96h-51.11V676.4z"/>
		<path d="M2364.7,707.75h-2.26v-27.67c0-1.98-0.85-2.82-2.54-2.82h-98.27c-22.59,0-30.78,7.91-30.78,33.04v34.45
			c0,24.57,7.91,33.32,30.78,33.32h153.9v53.37h-158.99c-61.28,0-83.87-31.91-83.87-81.61v-42.36c0-49.7,22.59-81.61,83.87-81.61
			h153.9c5.65,0,8.19,2.82,8.19,8.47v53.37L2364.7,707.75z"/>
		<path d="M2441.5,831.44V611.17h51.11v220.27H2441.5z"/>
		<path d="M2518.87,676.4h51.11v86.69c0,17.23,6.5,22.87,23.72,22.87h46.6c18.07,0,24.29-6.5,24.29-22.87V676.4h51.11v93.47
			c0,37.56-16.94,61.56-63.54,61.56h-70.32c-46.03,0-62.97-24-62.97-61.56V676.4z"/>
		<path d="M2741.95,611.17h51.11v65.23h75.4c46.31,0,63.26,24.29,63.26,61.56v31.91c0,37.56-16.94,61.56-63.26,61.56h-57.61
			l-15.53-39.54h-1.98v39.54h-51.4V611.17z M2793.07,717.07v68.9h65.8c16.1,0,21.74-5.37,21.74-22.87v-21.74
			c0-18.36-5.65-24.29-21.74-24.29H2793.07z"/>
	</g>
	<g>
		<path d="M4362.47,728.36h-1.98v103.07h-58.17V634.32c0-5.65,2.54-8.47,8.19-8.47h219.14c5.65,0,8.19,2.82,8.19,8.47v55.35
			l-53.65,18.07h-2.54v-27.39c0-2.26-0.85-3.11-2.54-3.11h-113.24c-3.95,0-5.37,1.41-5.37,5.08V723h94.32v46.03h-77.09
			L4362.47,728.36z"/>
		<path d="M4675.92,741.35h-2.26v-21.18c0-1.69-0.85-3.11-2.82-3.11h-62.41c-9.04,0-12.42,3.67-12.42,13.84v100.53h-51.11V719.89
			c0-26.26,13.27-43.49,43.21-43.49h125.67c5.08,0,7.34,2.54,7.34,7.62v40.1L4675.92,741.35z"/>
		<path d="M4740.3,652.12v-40.95h51.11v40.95H4740.3z M4740.3,831.44V676.4h51.11v155.03H4740.3z"/>
		<path d="M4817.67,611.17h51.11v65.23h75.4c46.31,0,63.26,24.29,63.26,61.56v31.91c0,37.56-16.94,61.56-63.26,61.56h-57.61
			l-15.53-39.54h-1.98v39.54h-51.4V611.17z M4868.78,717.07v68.9h65.8c16.1,0,21.74-5.37,21.74-22.87v-21.74
			c0-18.36-5.65-24.29-21.74-24.29H4868.78z"/>
		<path d="M5229.96,769.87c0,37.56-17.23,61.56-63.54,61.56h-74.55c-46.03,0-63.26-24-63.26-61.56v-31.91
			c0-37.28,17.23-61.56,63.26-61.56h74.55c46.31,0,63.54,24.29,63.54,61.56V769.87z M5157.1,785.97c16.1,0,21.74-5.37,21.74-22.87
			v-21.74c0-18.64-6.21-24.29-21.74-24.29h-55.63c-16.1,0-21.46,5.93-21.46,24.29v21.74c0,17.51,5.37,22.87,21.46,22.87H5157.1z"/>
		<path d="M5253.68,676.4h51.11v86.69c0,17.23,6.5,22.87,23.72,22.87h46.6c18.07,0,24.29-6.5,24.29-22.87V676.4h51.11v93.47
			c0,37.56-16.94,61.56-63.54,61.56h-70.32c-46.03,0-62.97-24-62.97-61.56V676.4z"/>
		<path d="M5606.94,741.35h-2.26v-21.18c0-1.69-0.85-3.11-2.82-3.11h-62.41c-9.04,0-12.42,3.67-12.42,13.84v100.53h-51.11V719.89
			c0-26.26,13.27-43.49,43.21-43.49h125.67c5.08,0,7.34,2.54,7.34,7.62v40.1L5606.94,741.35z"/>
		<path d="M5673.59,851.77h112.11c14.68,0,19.77-6.5,19.77-20.61v-12.43h-75.4c-46.31,0-63.54-18.64-63.54-56.48v-24.29
			c0-37.56,17.23-61.56,63.54-61.56h112.67c9.32,0,14.12,4.8,14.12,14.12v144.02c0,36.15-15.81,60.43-63.26,60.43h-120.02V851.77z
			 M5803.49,813.08h1.98v-91.21c0-3.11-1.69-4.8-4.8-4.8h-61c-15.81,0-22.03,6.21-22.03,24v14.4c0,16.66,5.93,22.03,22.03,22.03
			h49.98L5803.49,813.08z"/>
	</g>
</g>
<g id="V3_White">
	<path class="st1" d="M3985.63,841.65c29.01,39.48,49.36,53.34,60.82,91.14c3.54,11.66,4.03,45.37,13.51,52.62
		c45.59,34.89,71.04-7.77,73.03-59.04c1.56-40.13-25.4-91.78-46.7-112.06c16.58,6.37,29.15,14.1,40.15,22.56
		c24.4,18.76,38.07,41.08,40.97,69.55c12.01,117.74-115.49,238.07-163.34-19.09C3999.16,871.61,3988.68,855.12,3985.63,841.65z"/>
	<path class="st1" d="M3487.7,773.97c-84.71,29.39-149.67,59.78-190.47,107.16c10.91,27.18,8.94,38.97,14.63,68.11
		c78.58-40.27,168.65-46.58,258.58-50.19c-31.14-19.73-87.78-30.95-158.01-48.41l308.92,46.83l6.18,28.06
		c-2.19-8.48-464.26,89.29-466.61,101.93c-0.99,5.35-37.43-158.47-37.43-158.47C3278.8,802.12,3381.81,792.03,3487.7,773.97z"/>
	<path class="st1" d="M3467.01,464.24c-144.86-39.7-276.45-65.3-359.76-16.45c22.86,39.72,34.47,85.84,30.34,140.11
		c81.66-5.3,146.9-17.87,397.45,51.61c-42.4-44.27-124.8-88.3-209.43-132.32c111.47,36.38,226.95,76.82,482.36,258.69l-26.02,24.89
		l-208.29-74.22l-394.54-60.77l-113.96-58.85l-41.64-210.89l214.15-21.09L3467.01,464.24z"/>
	<path class="st1" d="M3766.75,254.32l-196.15-72.45c1.95,29.47-9.58,65.43-25.21,103.36c85.26,85.43,154.5,168.22,232.18,232.64
		c-14.24-51.47-79.35-169.38-139.17-281.93l257.76,419.8l-30.61,44.34l-357.07-379.05l5.45-127.48l26.37-67.98l122.89,53.93
		L3766.75,254.32z"/>
	<path class="st2" d="M3984.89,840.33c0,0,35.43,55.43,42.41,76.04c2.81,8.31,3.79,26.06,5.16,34.72
		c44.18,175.8,216.54-35.75,50.62-138.76c107.98,9.76,167.43,182.77,80.39,261.64c-135.75,114.99-324.91,21.99-273.88-148.65
		C3955.07,1077.91,4005.33,913.01,3984.89,840.33z"/>
	<path class="st3" d="M3870.67,646.45c-86.61-64.84-219.57-218.25-354.98-375.12c20.43-39.69,31.08-79.87,28.1-120.74
		c87.57,19.92,156.47,65.15,226.76,105.99c-74.69-90.29-196.41-156.23-273.19-161.43c0,0-14.4,105.02-61.32,160.5
		c106.6,187.36,442.83,478.71,518.47,535.77c-80.31-340.15-317.38-558.2-322.4-562.77C3660.22,267.35,3826.87,557.54,3870.67,646.45
		z"/>
	<path class="st2" d="M3473.88,467.42c-145.46-129.24-345.54-159.03-490.94-81.16c41.88,94.99,66.14,201.96,73.06,320.75
		c322.9-45.13,658.41,43.39,872.62,143.35c-218.42-198.63-509.01-389.96-634.13-347.49c94.93,17.21,350.97,176.07,431.12,249.77
		c-228.21-104.67-421.45-150.43-614.37-143.24c-35.97-82.44-64.35-158.93-57.78-207.98
		C3144.36,368.33,3323.62,405.88,3473.88,467.42z"/>
	<path class="st2" d="M3496.9,771.1c-97.65-16.18-213.59,28.32-340.44,109.04c44.21,69.08,80.92,134.89,99.55,192.83
		c107.96-50.9,178.5-110.32,619.32-169.12c-212.63-112.3-363.09-87.71-468.59-53.09c121.6,23.67,248.38,26.67,316.19,59.06
		c-139.97,7-279.37,6.98-429.2,103.09c-5.08-48.41-16.27-90.18-40.28-118.04C3299.52,843.94,3392.45,803.36,3496.9,771.1z"/>
	<path class="st2" d="M3961.61,635.7c0,144.4-105.22,278.6-231.27,353.28C3861.56,955.92,4044.89,802.5,3961.61,635.7z"/>
</g>
</svg>
