<?xml version="1.0" ?><svg height="32" id="svg2" version="1.1" viewBox="0 0 32 32.000001" width="32" xmlns="http://www.w3.org/2000/svg" xmlns:cc="http://creativecommons.org/ns#" xmlns:dc="http://purl.org/dc/elements/1.1/" xmlns:inkscape="http://www.inkscape.org/namespaces/inkscape" xmlns:rdf="http://www.w3.org/1999/02/22-rdf-syntax-ns#" xmlns:sodipodi="http://sodipodi.sourceforge.net/DTD/sodipodi-0.dtd" xmlns:svg="http://www.w3.org/2000/svg"><defs id="defs4"/><g id="layer1" transform="translate(0,-1020.3622)"><path d="m 31.5,1050.1122 0,-2.5 -31,0 0,2.5 z" id="path12963" style="opacity:1;fill:none;fill-opacity:1;stroke:#000000;stroke-width:1;stroke-linecap:round;stroke-linejoin:round;stroke-miterlimit:4;stroke-dasharray:none;stroke-opacity:1"/><path d="m 30.25,1037.6122 1.25,-2.5 -31,0 1.25,2.5 z" id="path12965" style="opacity:1;fill:none;fill-opacity:1;stroke:#000000;stroke-width:1;stroke-linecap:round;stroke-linejoin:round;stroke-miterlimit:4;stroke-dasharray:none;stroke-opacity:1"/><path d="m 26.75,1039.8622 -5.5,0 0,4.5037 5.5,0" id="path12969" style="opacity:1;fill:none;fill-opacity:1;stroke:#000000;stroke-width:1;stroke-linecap:round;stroke-linejoin:round;stroke-miterlimit:4;stroke-dasharray:none;stroke-opacity:1"/><path d="m 18.75,1039.8622 -5.5,0 0,4.5037 5.5,0" id="path9621" style="opacity:1;fill:none;fill-opacity:1;stroke:#000000;stroke-width:1;stroke-linecap:round;stroke-linejoin:round;stroke-miterlimit:4;stroke-dasharray:none;stroke-opacity:1"/><path d="m 14.375001,1026.8623 0,2.3451 0.215645,0.2178 c 0.906574,0.9159 1.912136,0.9159 2.81871,0 l 0.215645,-0.2178 0,-2.3451 z" id="path12975" style="fill:none;fill-rule:evenodd;stroke:#000000;stroke-width:1px;stroke-linecap:butt;stroke-linejoin:miter;stroke-opacity:1"/><path d="m 12.500001,1035.1122 0,-3 2.5,-0.5 1,2 1,-2 2.5,0.5 0,3" id="path12977" style="fill:none;fill-rule:evenodd;stroke:#000000;stroke-width:1px;stroke-linecap:butt;stroke-linejoin:round;stroke-opacity:1"/><path d="m 23.375001,1026.8623 0,2.3451 0.215645,0.2178 c 0.906574,0.9159 1.912136,0.9159 2.81871,0 l 0.215645,-0.2178 0,-2.3451 z" id="path12981" style="fill:none;fill-rule:evenodd;stroke:#000000;stroke-width:1px;stroke-linecap:butt;stroke-linejoin:miter;stroke-opacity:1"/><path d="m 21.500001,1035.1122 0,-3 2.5,-0.5 1,2 1,-2 2.5,0.5 0,3" id="path12983" style="fill:none;fill-rule:evenodd;stroke:#000000;stroke-width:1px;stroke-linecap:butt;stroke-linejoin:round;stroke-opacity:1"/><path d="m 5.375001,1026.8623 0,2.3451 0.215645,0.2178 c 0.906574,0.9159 1.912136,0.9159 2.81871,0 l 0.215645,-0.2178 0,-2.3451 z" id="path12987" style="fill:none;fill-rule:evenodd;stroke:#000000;stroke-width:1px;stroke-linecap:butt;stroke-linejoin:miter;stroke-opacity:1"/><path d="m 3.500001,1035.1122 0,-3 2.5,-0.5 1,2 1,-2 2.5,0.5 0,3" id="path12989" style="fill:none;fill-rule:evenodd;stroke:#000000;stroke-width:1px;stroke-linecap:butt;stroke-linejoin:round;stroke-opacity:1"/><path d="m 18.875001,1022.6123 0,2.3451 0.215645,0.2178 c 0.906574,0.9159 1.912136,0.9159 2.81871,0 l 0.215645,-0.2178 0,-2.3451 z" id="path12995" style="fill:none;fill-rule:evenodd;stroke:#000000;stroke-width:1px;stroke-linecap:butt;stroke-linejoin:miter;stroke-opacity:1"/><path d="m 19.500001,1027.3622 1,2 1,-2" id="path12997" style="fill:none;fill-rule:evenodd;stroke:#000000;stroke-width:1px;stroke-linecap:round;stroke-linejoin:round;stroke-opacity:1"/><path d="m 9.875001,1022.6123 0,2.3451 0.215645,0.2178 c 0.906574,0.9159 1.912136,0.9159 2.81871,0 l 0.215645,-0.2178 0,-2.3451 z" id="path13003" style="fill:none;fill-rule:evenodd;stroke:#000000;stroke-width:1px;stroke-linecap:butt;stroke-linejoin:miter;stroke-opacity:1"/><path d="m 10.500001,1027.3622 1,2 1,-2" id="path13005" style="fill:none;fill-rule:evenodd;stroke:#000000;stroke-width:1.00157475;stroke-linecap:round;stroke-linejoin:round;stroke-miterlimit:4;stroke-dasharray:none;stroke-opacity:1"/><path d="m 10.75,1039.8622 -5.5,0 0,4.5037 5.5,0" id="path9672" style="opacity:1;fill:none;fill-opacity:1;stroke:#000000;stroke-width:1;stroke-linecap:round;stroke-linejoin:round;stroke-miterlimit:4;stroke-dasharray:none;stroke-opacity:1"/><path d="m 29.49997,1047.3622 -10e-6,-9.7429 m -26.99991,0 -9e-5,9.7429" id="path12961" style="opacity:1;fill:none;fill-opacity:1;stroke:#000000;stroke-width:1;stroke-linecap:butt;stroke-linejoin:miter;stroke-miterlimit:4;stroke-dasharray:none;stroke-opacity:1"/></g></svg>