<?xml version="1.0" ?><svg class="icon icon-tabler icon-tabler-tournament" fill="none" height="24" stroke="currentColor" stroke-linecap="round" stroke-linejoin="round" stroke-width="2" viewBox="0 0 24 24" width="24" xmlns="http://www.w3.org/2000/svg"><path d="M0 0h24v24H0z" fill="none" stroke="none"/><path d="M5 4h4a1 1 0 0 1 1 1v4a1 1 0 0 1 -1 1h-4"/><path d="M5 14h4a1 1 0 0 1 1 1v4a1 1 0 0 1 -1 1h-4"/><path d="M10 7h4a1 1 0 0 1 1 1v8a1 1 0 0 1 -1 1h-4"/><line x1="15" x2="20" y1="12" y2="12"/></svg>