<?xml version="1.0" standalone="no"?>
<!DOCTYPE svg PUBLIC "-//W3C//DTD SVG 20010904//EN"
 "http://www.w3.org/TR/2001/REC-SVG-20010904/DTD/svg10.dtd">
<svg version="1.0" xmlns="http://www.w3.org/2000/svg"
 width="700.000000pt" height="700.000000pt" viewBox="0 0 700.000000 700.000000"
 preserveAspectRatio="xMidYMid meet">
<metadata>
Created by potrace 1.14, written by Peter Selinger 2001-2017
</metadata>
<g transform="translate(0.000000,700.000000) scale(0.100000,-0.100000)"
fill="#000000" stroke="none">
<path d="M2733 6133 c-9 -3 -13 -28 -13 -74 0 -213 -52 -477 -127 -641 l-35
-77 47 -67 c255 -356 776 -830 1430 -1299 305 -219 786 -528 1003 -646 56 -31
62 -37 57 -59 -8 -33 -125 -267 -139 -279 -8 -6 -48 18 -121 71 -933 688
-1880 1185 -2417 1269 -90 14 -279 7 -323 -11 l-30 -12 60 -14 c123 -29 225
-69 415 -164 218 -109 354 -185 481 -271 98 -65 193 -145 164 -136 -156 48
-710 152 -975 183 -229 27 -664 21 -817 -12 -22 -4 -23 -2 -23 68 0 158 -43
334 -115 480 -33 64 -41 89 -32 96 50 40 219 100 347 123 126 23 492 18 678
-9 242 -36 440 -79 562 -122 129 -46 129 -41 1 54 -311 231 -675 380 -1056
431 -184 25 -462 17 -631 -19 -147 -31 -297 -82 -418 -143 -50 -25 -93 -47
-95 -49 -2 -2 22 -60 53 -130 153 -343 268 -779 321 -1219 9 -71 18 -131 21
-134 2 -2 55 3 117 12 255 37 333 42 732 42 417 0 516 -6 875 -51 604 -75
1274 -230 1913 -440 179 -59 197 -67 185 -82 -52 -68 -145 -176 -191 -220
l-54 -54 -69 35 c-532 267 -1148 386 -1639 317 -104 -15 -275 -52 -275 -59 0
-4 44 -17 98 -30 257 -61 515 -141 616 -193 l49 -25 -134 -7 c-418 -22 -743
-85 -973 -190 l-73 -33 -16 106 c-8 58 -23 129 -33 156 l-16 50 73 68 c167
154 472 318 779 418 92 30 91 33 -17 48 -279 41 -647 -30 -1049 -204 -111 -48
-424 -205 -458 -230 -17 -13 -15 -20 48 -133 146 -263 281 -564 333 -739 10
-35 21 -63 25 -63 5 0 72 27 150 59 374 156 715 247 1193 320 303 47 496 68
1068 116 37 4 67 4 67 1 0 -3 -48 -37 -107 -77 -87 -57 -101 -70 -73 -64 56
11 218 74 305 118 80 40 81 40 243 50 89 5 164 8 167 6 2 -3 0 -37 -5 -77 -12
-90 3 -250 30 -342 63 -214 270 -364 592 -431 151 -31 337 -24 465 18 190 63
301 147 362 277 60 125 76 199 75 356 0 151 -14 221 -67 329 -27 55 -122 171
-131 160 -2 -2 1 -44 6 -94 13 -116 3 -325 -17 -392 -12 -42 -28 -63 -81 -112
-83 -75 -141 -104 -221 -109 -58 -4 -64 -2 -93 26 -19 20 -30 41 -30 59 0 15
18 118 40 228 55 279 54 387 -6 531 l-16 37 -28 -51 c-101 -186 -300 -352
-497 -416 -109 -36 -137 -10 -129 119 3 44 12 107 21 139 8 32 13 61 11 64 -8
8 -170 -124 -200 -162 -15 -20 -38 -61 -52 -90 l-25 -54 -74 45 -74 45 72 57
c40 32 110 97 157 144 47 48 90 87 96 87 6 0 90 -31 185 -70 95 -38 175 -67
177 -66 3 3 -171 150 -257 218 l-35 26 26 40 c41 61 96 174 121 250 20 60 26
68 43 61 40 -16 44 -10 23 39 -17 39 -21 73 -23 192 -3 157 -18 227 -72 345
l-28 60 -7 -97 c-13 -193 -8 -191 -103 -21 -310 557 -719 1078 -1186 1511
-202 187 -449 392 -474 392 -5 0 11 -21 35 -47 46 -49 267 -339 468 -612 193
-261 372 -533 359 -546 -8 -8 -348 227 -545 377 -111 84 -305 231 -431 327
l-229 174 20 91 c15 66 20 132 21 242 1 128 3 150 16 147 8 -1 200 -37 425
-78 226 -42 436 -85 468 -96 32 -11 60 -19 62 -17 7 7 -113 102 -220 173 -239
160 -507 278 -770 340 -144 34 -344 54 -382 38z"/>
</g>
</svg>
